<svg width="51" height="42" xmlns="http://www.w3.org/2000/svg">
    <defs>
        <filter color-interpolation-filters="auto" id="a">
            <feColorMatrix in="SourceGraphic" values="0 0 0 0 0.964706 0 0 0 0 0.698039 0 0 0 0 0.133333 0 0 0 1.000000 0"/>
        </filter>
    </defs>
    <g transform="translate(-1418 -2634)" filter="url(#a)" fill="none" fill-rule="evenodd">
        <g fill="#000" fill-rule="nonzero">
            <path d="M1465.4 2634H1418v7.373h47.4zM1461.97 2666.101l-4.875-24.728h3.05l4.785 24.26c1.933.323 3.567 1.836 3.975 3.904.523 2.654-1.17 5.233-3.774 5.749a4.75 4.75 0 0 1-3.633-.76 4.92 4.92 0 0 1-2.038-3.12c-.433-2.195.65-4.338 2.51-5.305zM1445.158 2666.375v-25.002h2.995v25.117c1.833.694 3.144 2.495 3.144 4.603 0 2.706-2.16 4.907-4.814 4.907s-4.814-2.2-4.814-4.907c0-2.238 1.477-4.13 3.49-4.718z"/>
            <path d="M1433.795 2666.374v-25.001h2.994v25.117c1.834.694 3.144 2.495 3.144 4.603 0 2.706-2.16 4.907-4.814 4.907-2.655 0-4.813-2.2-4.813-4.907 0-2.238 1.476-4.13 3.489-4.719zM1422.43 2666.374v-25.001h2.995v25.117c1.833.694 3.144 2.495 3.144 4.603 0 2.706-2.159 4.907-4.814 4.907-2.654 0-4.814-2.2-4.814-4.907 0-2.238 1.477-4.13 3.49-4.719z"/>
        </g>
    </g>
</svg>
