<svg width="43" height="50" xmlns="http://www.w3.org/2000/svg">
    <defs>
        <filter color-interpolation-filters="auto" id="a">
            <feColorMatrix in="SourceGraphic" values="0 0 0 0 0.964706 0 0 0 0 0.698039 0 0 0 0 0.133333 0 0 0 1.000000 0"/>
        </filter>
    </defs>
    <g transform="translate(-186 -2626)" filter="url(#a)" fill="none" fill-rule="evenodd">
        <path d="M225.615 2653.879c-1.986-2.908-3-5.09-3.27-8.72-.202-2.712.93-5.844.93-5.844-1.403.941-1.418.84-2.344 1.611-4.819 4.014-6.078 8.03-6.225 8.55l-.016.058.016-.058s3.766-14.849-6.718-21.763c-.87-.574-2.877-1.713-2.877-1.713s5.205 12.86-4.114 20.49c-1.835-7.545-11.519-7.638-11.519-7.638s.744 2.63.864 3.25c1.57 8.2-3.24 10.796-4.218 18.547l-.001.01c-.763 6.09 2.114 10.803 6.536 13.983.206-2.148 1.08-4.279 2.294-6.057 1.374-2.01 2.075-3.52 2.261-6.03.14-1.877-.643-4.045-.643-4.045.97.652.981.582 1.622 1.116 2.708 2.255 3.79 4.513 4.156 5.473l.038-.023c-.462-2.1-1.764-10.289 4.76-14.59.6-.397 1.99-1.185 1.99-1.185s-3.695 8.14 4.438 14.752c-.182-2.706.842-5.205 2.76-7.13 1.04-1.045 2.917-1.547 2.917-1.547s-.515 1.82-.597 2.25c-1.086 5.673 3.64 10.085 2.63 15.46a15.15 15.15 0 0 1-.838 2.914h.451c2.397-1.29 4.622-2.968 6.146-5.27 3.467-5.238 1.909-11.966-1.429-16.851z" fill="#000" fill-rule="nonzero"/>
    </g>
</svg>
