<svg width="51" height="44" xmlns="http://www.w3.org/2000/svg">
    <defs>
        <filter color-interpolation-filters="auto" id="a">
            <feColorMatrix in="SourceGraphic" values="0 0 0 0 0.964706 0 0 0 0 0.698039 0 0 0 0 0.133333 0 0 0 1.000000 0"/>
        </filter>
    </defs>
    <g transform="translate(-735 -2632)" filter="url(#a)" fill="none" fill-rule="evenodd">
        <g fill="#000" fill-rule="nonzero">
            <path d="M759.006 2632a25.324 25.324 0 0 0-15.472 6.411l6.667 6.668a15.98 15.98 0 0 1 8.805-3.648V2632zM748.088 2647.192l-6.668-6.668a25.326 25.326 0 0 0-6.419 15.474h9.43a15.984 15.984 0 0 1 3.657-8.806zM776.568 2655.998h9.43a25.325 25.325 0 0 0-6.418-15.474l-6.668 6.668a15.984 15.984 0 0 1 3.656 8.806zM776.566 2658.986a15.916 15.916 0 0 1-1.643 5.761c.758 1.169 1.39 2.156 1.807 2.812a4.456 4.456 0 0 1-.612 5.577 4.487 4.487 0 0 1-1.229.872l1.553 1.553c.292.293.676.439 1.059.439.383 0 .766-.146 1.058-.439 4.475-4.474 7.084-10.313 7.441-16.575h-9.434zM744.434 2658.986H735c.357 6.262 2.966 12.1 7.441 16.576a1.492 1.492 0 0 0 2.117 0l4.533-4.534a1.497 1.497 0 0 0 0-2.117c-1.183-1.183-4.163-4.496-4.657-9.925zM777.466 2638.411a25.324 25.324 0 0 0-15.472-6.411v9.431a15.98 15.98 0 0 1 8.805 3.648l6.667-6.668zM763.82 2654.197a4.7 4.7 0 0 0-6.64 0 4.7 4.7 0 0 0 0 6.64c2.313 2.313 13.678 9.57 14.966 10.39a1.494 1.494 0 0 0 2.063-2.063c-.82-1.289-8.076-12.655-10.389-14.967z"/>
        </g>
    </g>
</svg>
