<svg width="51" height="51" xmlns="http://www.w3.org/2000/svg">
    <defs>
        <filter color-interpolation-filters="auto" id="a">
            <feColorMatrix in="SourceGraphic" values="0 0 0 0 0.964706 0 0 0 0 0.698039 0 0 0 0 0.133333 0 0 0 1.000000 0"/>
        </filter>
    </defs>
    <g transform="translate(-186 -2939)" filter="url(#a)" fill="none" fill-rule="evenodd">
        <g fill="#000" fill-rule="nonzero">
            <path d="M233.912 2951.053c.826 0 1.494-.669 1.494-1.494v-9.065c0-.826-.668-1.494-1.494-1.494H218.97c-.825 0-1.494.668-1.494 1.494v35.732l-15.797 11.056a1.496 1.496 0 0 0-.57 1.673 1.496 1.496 0 0 0 1.426 1.045h32.97c.653 0 1.23-.423 1.426-1.045a1.496 1.496 0 0 0-.569-1.673l-15.897-11.056v-25.173h13.447zM205.523 2944.977a5.982 5.982 0 0 0-5.976-5.977 5.982 5.982 0 0 0-5.977 5.977c0 3.296 2.68 6.076 5.977 6.076 3.296 0 5.976-2.78 5.976-6.076z"/>
            <path d="M192.076 2971.97v-10.458a1.494 1.494 0 1 1 2.988 0v26.994c0 .826.669 1.494 1.495 1.494h1.773c-.018-.05-.054-.09-.07-.142a4.466 4.466 0 0 1 1.704-5.025l1.075-.752v-12.11h2.988v10.018l5.977-4.182v-8.825a2.992 2.992 0 0 0-2.989-2.988h-2.988v-8.965h10.46v-5.976h-22.413c-3.296 0-6.076 2.68-6.076 5.976v8.965c0 3.296 2.78 5.977 6.076 5.977z"/>
        </g>
    </g>
</svg>
