<svg xmlns="http://www.w3.org/2000/svg" xmlns:xlink="http://www.w3.org/1999/xlink" viewBox="0 0 947.27 947.23"><defs><style>.cls-1{fill:none;stroke:#000;}.cls-2{fill:url(#linear-gradient);}</style><linearGradient id="linear-gradient" x1="286.5" y1="980.78" x2="286.5" y2="981.77" gradientTransform="matrix(904.66, 276.58, 276.58, -904.66, -530116.34, 808966.64)" gradientUnits="userSpaceOnUse"><stop offset="0" stop-color="#033b5e"/><stop offset="0.62" stop-color="#004875"/></linearGradient></defs><g id="Layer_2" data-name="Layer 2"><g id="Layer_1-2" data-name="Layer 1"><g id="Page-1"><g id="LandingPage-Copy"><g id="Statistics-section"><g id="Group-2"><g id="Globe-vector"><path id="Path" class="cls-1" d="M334.6,925.83c250.23,76.5,514.61-63.52,591.22-313.33C1002.07,363.84,863.81,100,615,22.34,364.71-55.91,100,82.73,22.22,332.43-56.19,584,84.52,849.26,334.6,925.83Z"/><path id="Shape" class="cls-2" d="M334.71,925.86C84.49,849.36-56.11,584.14,22.22,332.43,100,82.73,364.72-55.91,615,22.34c248.79,77.79,387.08,341.5,310.83,590.16C849.32,862.34,584.94,1002.37,334.71,925.86ZM408,65.11c4.31-8.84,13.36-7.46,20.87-9.77-12.13-3.71-23.8-10.86-36.86-4,1.07-7.64,4.87-9.13,11.2-7.19,3.06.93,3.81-1.15,2.59-3.94a19.45,19.45,0,0,0-19.56-11.52c-18.39,1.65-34.6,9.38-50.66,17.74A99,99,0,0,1,323.19,52c-7.5,2.66-15.13,5-22.81,7.45,0,.69.14,1.42.15,2.12a19.1,19.1,0,0,0,4.69.16c5-.65,11.18-3.73,14.89-1.91,8.49,4.33,16,2,23.94-.18a35.36,35.36,0,0,1,7.47-1.4c4.36-.29,8.8-.08,13.19-.13,2.66,0,5.24-.13,9-.25-6.78,9.35-15.19,13.81-24.76,16.43-5.16,1.42-10.84,1.87-15.25,7.22,3.4,1.73,6.33,3.09,9.83,4.85-8.76,4.13-16.85,7.54-24.59,11.75-5.41,3-11.3,6-15.42,10.4-9.42,10.05-20.82,16-33.93,19.63-4.16,1.15-9.09,2.18-8.61,8.56.06.94-1.17,2.3-2.2,3a132.88,132.88,0,0,1-11.18,7.89,24.42,24.42,0,0,1-5.5,2.13c.55-3.3.9-6,1.36-8.59a12.81,12.81,0,0,0,3.43-6.68c.76-7.38.88-7.81,8.37-8.52,3.69-.37,7.33-.18,11-.69,2.64-.35,5.16-1.42,8.59-2.45a27,27,0,0,0-2.76-3,14.18,14.18,0,0,1-4.37-15.52c2-5.85-2-10.32-8.79-9.38a5.6,5.6,0,0,0,.21,1.56c3.62,9,3.35,9.45-6.08,12-3.16.88-6.63,1.66-8.88,3.74-3.38,3.13-5.68,7.27-8.65,11.32,1,.78,2.45,1.79,4,2.94-5.09,4.56-9,2.67-16.44-8.14,3.1-1.48,6.18-2.84,10.21-4.73-2.81-3.63-4.87-9-7.81-9.54-3.51-.61-7.68,2.85-11.51,4.44-.41-2.08-.82-4.51-1.5-8-6.92,2.26-13.42,4.66-20,6.57-3.57,1.1-7.64,2.74-11,2.06-3.9-.85-6.18.19-8.81,2.38-37.58,31.2-69.38,67.64-96,108.55-21.32,32.72-37.4,68-47,105.86a162.9,162.9,0,0,0-3.73,22.74c-1.26,10.93-1.86,21.94-3.12,32.86-1.64,14-4.29,28-5.26,42.12-2.16,32,9,61.94,14.82,92.69.08.14.12.38.19.52a32.45,32.45,0,0,1-10.89,37.52c-1.37,1.08-2.82,3.17-2.85,4.78-.45,22.24.75,44,8.59,65.51,52.15,143.1,148.64,242,292.12,293.89C379.16,940.15,441,948,504.4,943.82a461.34,461.34,0,0,0,177.74-48Q817.13,828.57,889,696c.77-1.38,1.66-3.18,1.52-4.61a149,149,0,0,0-2.75-16.65c-1.17-4.86-2.47-9.3,3.57-12.07-2.74-4.64-6.57-8.7-1.81-13.7,3.88-4,7.67-3.2,12.66.87.62-4.31,1.62-7.58,1.47-10.86-.38-9.69-1.6-19.3-1.64-29-.16-12.28.61-24.62.9-36.88a60.35,60.35,0,0,0-.82-7.52c-3.87,5.85-6.83,10.26-10.5,15.83-.59-2.61-1.17-3.71-1-4.69,2-9.89-3.29-17.16-8.37-24.71-2.86-4.22-5.29-5-8.29-.81-6.41,8.89-13.21,17.54-18.87,27-6.43,10.84-10.23,23.65-17.94,33.4-8.46,10.69-11.46,22-12.44,34.63l-.16.52c-1.76,7.66-2.06,15.06,1.79,22.47,3.63,7,3.33,14.41-2.56,20.45-1.36,1.43-3.58,1.91-5.48,2.83-.47-1.88-1.28-3.74-1.29-5.59-.07-3.94.29-7.76.53-12-1.67.18-2.33.09-2.64.34-2,1.94-3.85,3.9-5.72,5.87-3.44,3.33-6.07,2.88-8-1.51a21.23,21.23,0,0,1-1.36-4.22c-5.4-21.62-13.15-42.68-16.29-64.87-.33-1.95-2.6-4.72-4.42-5.16-13.21-3.23-20.18-14-27.82-23.39-5.94-7.36-5.12-7.8-14.57-6-8.68,1.61-17.57,3.51-26.4,3.69s-18-.07-25.65-6.68a28.6,28.6,0,0,0-1.35,3.28c-1.19,8,2,13.07,9.93,15.84,5.24,1.72,11.06,5.34,10,10.22-1.41,6.49-6.32,12.37-9.91,18.43a26.2,26.2,0,0,1-3.6,3.86c-4.1,4.75-7.41,10.66-12.57,13.93-6.63,4.32-12.72,10.3-21.5,11.08a11.22,11.22,0,0,0-6.83,3.45c-6.65,7.43-16,9.65-24.71,12.52-12.5,4.26-25.25,7.86-38,11.35-6.79,1.85-10.13-.44-11.52-7.21-.88-4.31-1.9-8.89-1.31-13.09,2.24-15.24-7.47-26.52-13-39-2.22-4.83-4.59-9.13-5-14.57s-.43-11.78-3.22-15.87c-5.29-7.61-8.08-15.85-10.5-24.55-1-3.78-3.29-7.36-5.5-10.69-.7-1.13-3.5-1.76-4.79-1.34s-2.2,2.67-2.58,4.29c-.38,1.26.29,2.85.39,4.38.73,9.69,7.13,18.22,5.39,28.42-.18,1,1.31,2.13,1.79,3.2,1.55,3.25,3.69,6.44,4.3,9.74.7,4.48.09,9.14.41,13.74.21,2.72.6,5.61,1.88,7.84,4.38,7.92,7.94,15.93,6.22,25.33-.16.88.85,2.11,1.41,3.31,3-1.4,5.63-4.85,7.89.23a102,102,0,0,0,7.24,14.44c3.92,6.05,7.74,12.06,8.21,19.59.24,4.11,2.81,6.28,6.86,6.6a24.51,24.51,0,0,0,6.57,0c13.41-2.36,26.72-4.75,40.1-7.35,4.06-.84,4.86.33,5.13,4.34.46,7.17-3.93,11.72-7.61,16.59-15.06,20.2-32.24,38.26-55.63,49.11-3,1.4-5.79,3.08-8.72,4.72-12.73,7.3-25.57,14.57-38.05,22.17-4.12,2.55-10.15,4.52-8.43,11.73a2.25,2.25,0,0,1-1.11,1.74c-4.26,1.47-3.3,4.76-3.53,8.15a13,13,0,0,1-2.75,7.47c-3.76,4.39-4.57,8.53-1.09,13.4a6.55,6.55,0,0,1,1,4.13c-1.27,18.88-9.54,27.43-28.2,30.72-8.9,1.55-17.49,4-26.24,6.17-4.26,1.12-6.83,3.1-6.84,8.41-.09,8.62-4,12.28-12.42,12.7-7.15.36-13.82,1.43-18.77,7.42A8.71,8.71,0,0,1,410,896c-13.79,4-28,8.63-42.26,6.12-19.11-3.53-37.73-9.46-56.5-14.5-1.58-.49-3.09-2.33-3.87-3.95-2.64-5.31-4.5-11-7.28-16.19s-7.36-9.52-9.17-14.92c-5.41-15.16-10.13-30.68-14.5-46.2-1.15-4.16-1.89-10,.2-13.1,3.5-5.39,9.51-9.21,14.31-14,2-1.93,4.75-4.2,4.87-6.47a247,247,0,0,0-.55-25.79c-.74-11.53-4.64-22.18-10-32.49-3.56-6.85-6-14.4-8.51-20.48,7.72-7.11,12.71-14,15.83-21.93,1.7-4.45-.12-6-5.14-5.85a22,22,0,0,1-3.72-.67c1.94-1.83,3.38-3.12,5.94-5.45-5.51-2.38-10.07-4.81-15-6.33-5.84-1.67-9.2-5-9.77-11.07-.19-2-.87-3.95-1.2-5.9a11.87,11.87,0,0,0-8-9.71c-7.43-2.5-15-4.83-22.49-7.22-6.93-2.24-15.15-2.91-20.57-7.1-8.65-6.8-17.66-12.44-27.91-16.26-5.92-2.16-9.76-6.22-12.31-11.84-5.55-12.43-11.23-24.79-16.78-37.21-.59-1.45-1.31-3.63-.78-4.63,4.33-7,1.83-13.51-.92-20-4.38-10.57-8.21-21.08-.87-31.88a24.37,24.37,0,0,0,.81-2.64c1.94-3.33,3.42-7,6-9.71,4.15-4.15,9.59-7.22,7.55-13.38,1.61,0,3.89.49,4.05,0a83.66,83.66,0,0,0,3.59-9.86c.36-1.16-.24-2.61.19-3.63,5.65-12.82,14.27-22.53,27.8-27.51a15.37,15.37,0,0,0,6.07-4.37c5.89-7.2,15.78-5.21,22.57-10.06.14-.08.35,0,.56.05,6.11,0,12.23.4,18.32-.28a11.05,11.05,0,0,0,7.19-4.26c6.34-10.18,15.52-14.53,27.2-15,6.53-.19,12.26-2.71,16-8.39,3.4-5.07,2.89-8.34-1.78-12.31-2-1.77-4.1-3.56-6-5.3,1.95-3.32,3.61-6.51,5.56-9.49,2.36-3.55,4.82-7.07,7.49-10.52,4-5.12,9-9.72,12.18-15.31,4.35-7.44,10.77-8.82,17.11-2.73a178.89,178.89,0,0,0,15.29,12.63c7.08,5.17,10.41,4.46,15.39-2.79,5.66-8.31,6.32-16.88,2.21-26.1-.89-2-.3-5,.56-7.09.33-.71,4.07-.49,5.94.2,3.07,1.28,5.54,2.61,8.76,0,.92-.76,4.05,0,5.36,1,5,4,9.47,4.51,16.46.53-6.25-2.95-11.74-5.78-17.38-8.08s-11.46-4.43-17.27-6.55c2.76-1.47,5.13-1.67,7.45-2.11,3.34-.71,7.46-.6,6-6.26-.16-.62,1.55-2.06,2.51-2.92,2-1.59,4.14-3,6.31-4.42,1.13-.69,2.58-1.63,3.66-1.42,4.71,1.21,5.77-1.12,6-5.31-1.5,0-3.58.4-3.8,0-3.18-5.82-5.84-1.67-7.81.61-5.63,6.36-16.93,8.21-24,3-1.31-1-2.49-4.69-1.87-5.19,4.6-4.48,9.63-8.48,14.48-12.65a1.55,1.55,0,0,1,1-.27c4.92.12,9.81,0,14.64.44s9.77-4,9.52-8.51c-.11-1.54.53-4,1.49-4.51a21.64,21.64,0,0,1,8.61-2.1c2.09,0,4.06,1.82,6.16,2.11a79.65,79.65,0,0,0,10.48.09c.11.38.36.69.48,1.07-2.95,2.1-5.93,4.3-9.5,6.91,3.56,2.7,4.05,5.62.4,7.74-5.36,3.2-6.29,8.11-6.6,13.67-.63,11.11,2.25,22.84-6.05,33,2.8.28,5.32.35,7.53-.47,3.77-1.39,7.16-3.81,10.9-5.09,3-1.05,6.38-2,9.32-1.42,10.7,2,10.64,2.21,15.59-7.58.8-1.49,1.5-3,2.16-4.42,2.08-4.55,5.55-6.84,10.45-6.61,2.83.17,5.67.69,9.56,1.19.18-2.48,1.22-5.51.19-7.44-.55-1.21-4.38-.76-6.72-1a26.6,26.6,0,0,0-2.75.31c-7.85.37-11.45-4.07-8.95-11.5,1.49-4.51,3.26-9.16,6.13-12.89a27.53,27.53,0,0,1,10.52-8c5.42-2.27,11.67-2.32,16.88-4.65,9.53-4.35,18.54-9.68,27.78-14.58l-.35-1.15-5.56-.66c4.29-2.73,8.73-5.18,13.42-6.17a185.52,185.52,0,0,1,26.88-4.12c8-.55,15.47,1.49,20.48,9.26a33.49,33.49,0,0,0,9.73,9.32C591,230.42,597.9,236,602.6,244c1.61,2.68,3.66,5,7.65,4.07-.72-4.84-1.46-9.22-2.29-14.78,3,1.15,5.55,1.47,7.43,2.85,4.42,3.31,8.3,2.31,12.82.34s9.67-2.93,14.55-4.55a46,46,0,0,0,5.11-2.36c-1.09-1.72-1.71-4.22-3.38-5.19-3.15-1.77-6.77-2.76-10.19-4-7.61-2.67-9.89-6.14-9.08-14.08.58-4.9,1.29-9.88,2-14.74,1.11-7.4,7-13.34,15.68-15.06-.5,2.39-.9,4.46-1.51,6.46-2.16,7.07-4.72,13.91-6.56,21.08a12.34,12.34,0,0,0,.48,7.87c3.89,7.65,21.32,15.18,29.94,13.42-1.17-4.85-2.48-9.64-3.37-14.64s-1.13-9.92-1.56-13.4c4.64-1.58,7.86-2.68,11.18-3.74.76.93,1.91,2.43,3.79,5,.57-2.25,1-3.38,1-4.42,0-1.26-.73-2.53-.72-3.68.24-11,4.81-22.19-1.78-33.09,2.23-.47,3.93-.76,6-1.16-2.46-4.79-4.29-8.23-10.69-7.31-5,.79-10.56-.92-15.56-2.33-2.32-.71-4.1-3.56-6.2-5.36,2.82-.17,4.77,1,6.65.88,9.53-.2,18.87.58,28,3.94a3.82,3.82,0,0,0,3.1-.32c3.64-2.46,6.61-.86,9.76.91a98,98,0,0,0,8.64,4.95,5.62,5.62,0,0,0,4.67-.54c2.15-1.76,3.94-4.21,6.05-6.57a14.7,14.7,0,0,1-2.28-1.62c-1.15-1.51-2.27-3.12-3.29-4.7,1.9-.92,3.82-2.29,5.76-2.62s4.17.35,6.3.54c.52-10-7.56-17.54-17.64-17-12.52.56-13.48-.08-15.44-11.76-.21-1.21.59-2.7.91-4.1,1.21.94,2.62,1.61,3.52,2.81,2.1,2.94,3.89,6.15,6.13,9,1.58,2,10.39-.4,10.05-2.69-.71-4.84,2-10.35-2.84-14.49-1.39-1.11-3-4.25-2.39-5,2.36-3.2-.29-4.35-1.79-5.85-2.22-2.18-4.61-4.18-7-6.18-12.94-10.88-25.92-21.66-38.86-32.54a36.41,36.41,0,0,1-3.23-3.41c2.13-1.31,3.61-2.36,5-3.19-6.21-8-14.17-2.37-20.91-4.09a15.17,15.17,0,0,0-3.81,0,1.54,1.54,0,0,0-.93.41c-3.53,5.5-8.58,3.15-12.83,2-15.64-4-31.15-8.72-46.82-12.58a140,140,0,0,0-23.31-3.78c-9.47-.71-19.07-.64-28.53-.65-5.87-.06-11.69.12-17.59.16-.19,1-.37,2-.56,3,4.91,2.07,9.71,4.12,14.64,6.09a2.56,2.56,0,0,0,1.94-.68c5-3.65,11.3-1.85,14.75,5-2,.09-3.79.34-5.51.28-6.57-.39-13.15-1.14-19.79-1.32-2.51-.08-5.17,1.07-7.78,1.66s-5.4,1.81-7.95,1.49c-8.55-1.11-17-3-25.45-4.32-2.11-.29-4.35.63-7.52,1.17,3.7,5.28,7.8,6.19,12.65,5.82a66.4,66.4,0,0,1,12.53.14c2.91.32,5.73,1.29,5.76,5.34,0,1.15,2.21,3.33,3.36,3.34,3,0,6-1.06,9.08-1.38a34.54,34.54,0,0,1,5.91.3c-.51.54-1.16,1.15-1.67,1.69.44,2.32.07,5.79,1.42,6.66,4.87,3.34,10.31,5.92,15.51,8.55,4.7,2.36,10.41,11.61,9.36,16.94-1.12,5.54-6.51,5-10.53,6.13-.24,0-.4.57-1.18,1.6,1.91,2.43,3.76,5.42,6.16,7.77s5.41,3.84,7.87,6c3.67,3.08,3.9,6.5.24,9.77-1,.86-1.88,1.61-2.83,2.48,1.07,2.52,2,4.87,3.05,7.39-8.42,1.12-16.5,2.23-24.84,3.48-1.45,6.25-7.73,4.91-12.12,6.8-2.25.93-4.45,2.1-6.73,3.13s-4.29,2.73-6.65,3.28c-6.73,1.63-13.66,2.4-20.28,4.41-5.2,1.53-9.33,5.23-15.58,5.28s-11.77-.37-17.62-2.74c-8.12-3.28-16.59-5.76-24.86-8.52-3.66-1.23-8-1.4-10.95-3.46-4.34-3.17-8.37-2.44-13-1.91-12.08,1.39-24.35,2.25-36.57,3.36-.24,0-.54-.51-1.79-1.7,3.47-4.94,6.21-11.26,11-14.87a104.89,104.89,0,0,1,47.81-20.11c2.67-.45,5.75,1.18,8.67,1.84,2,.51,4.21.94,7.09,1.71-.7-3-1.05-4.48-1.67-7,3.21,0,5.8.27,8.45.27,2.2,0,4.41.31,6.42-.23,4.75-1.2,9.38-3.13,14.13-4.33,5.86-1.44,11.92-2.36,17.78-3.8,4.13-1,7.71-3,9.45-7.49.62-1.66,3.13-3.08,5-3.55,8.33-2,16.42-2.36,22.69,5.44.83,1.06,3.48.71,5.26.91-.39-1.73-.27-4-1.31-5.13a21.09,21.09,0,0,0-6.76-4.72c-5.93-2.85-12.1-5.32-18.1-8-2.55-1.12-5-2.46-8.34-4,3.92-3.76,6.95-6.52,9.41-8.89-4.43-2.51-8.15-4.68-12-6.68a10.23,10.23,0,0,0-4.61-1.52c-7.51-.34-14.95-.54-22.49-.42-3.25.05-6.61.86-10.34,1.34,2.83,5.48,6.74,4,10.54,4,6.36,0,12.77-.25,19,.5,2.9.31,5.65,2.65,8.47,4-2.28,2.19-4.26,5.27-7,6.39-8.46,3.53-17.15,6.29-25.91,9.27C432.26,71.94,427,74.72,421.76,75c-7.46.25-13.5,3-19.53,6.49a63.38,63.38,0,0,1-5.89,3c-4,1.67-7.59.67-11.15-2,2.88-1.89,5.46-3.52,7.9-5.08-.26-.66-.45-1.18-.71-1.84-8.45,2.73-17,5.42-26.49,8.52,1.76-6.5-2.55-4.12-6.23-4.91,11.57-7.65,21.9-14.65,32.35-21.26,1.41-.84,5.51-.28,5.48-.17C398.14,64.27,404,63.29,408,65.11Zm7.69,317.59c.55-.3,1.17-.45,1.72-.74-.15-3.28.46-6.79-.45-9.84-1.19-4.05-5.06-3.85-8.39-3.14-7.95,1.84-15.15,1.25-21.35-4.91-2.14-2-5.94-3.2-7.6.33-3,6.25-8.08,6.42-13.72,7.12-8.11.86-15.53,2.86-20.6,10.77-4.84,7.52-17.47,9.2-25.29,5a32.39,32.39,0,0,0-8.53-3.41c-1.3-.28-3.68,1.07-4.38,2.24s-.41,4.37.36,4.84c6.23,3.4,11,9.25,19.11,10A140.47,140.47,0,0,1,355,406.49c10.87,3.32,21.39,7.8,31.9,12.29,5,2.11,9.52,5.1,14.37,7.74,0,.59.24,1.11.29,1.7-6.7,3-6.61,8-5.28,13.5.7,3-.95,4.21-4,4.43-2.23.12-4.45,1-7.16,1.5,6.23,8.71,11,16.41,19.67,21.36,3.36,1.84,4.82,6.9,7.18,10.5a33.23,33.23,0,0,0,3.88,5.81c3.08,3.13,6.47,6,9.72,9,7,6.42,8.63,6.1,13.38-2.26,4.25-7.47,16.35-9.31,22.16-3,9.29,10,20.84,16.76,33,22.42,3.14,1.43,6.83,3.71,9.78,3.11,9.55-2.16,17.77,1.51,26.19,4.55,4.16,1.5,7.31.62,9.56-3,4.49-7.51,9-15.13,13.11-22.87a18.79,18.79,0,0,0,1.65-8c0-5.2-3.79-8-8.5-6.17-6.39,2.43-11.27,1.4-15.63-4-2.34-2.9-5-4.16-9.16-1.76-1.82,1.06-5.63-.45-8.31-1.5-1.44-.56-2.5-2.38-3.65-3.54-2.29,1.84-4.1,3.25-6.12,4.94-1.14-3.46-2.11-6.3-2.88-9.07-.69-2.29-1.1-4.72-1.65-7.08-.61-.65.71-2.33.43-2.53-4.06-4.47-.6-8.61.13-12.88a31.65,31.65,0,0,0,0-4.26c-1.88.12-3.2.29-5.43.41,1.89-2.42,3.21-4.09,5.45-6.87-7.09,1.3-12.83,2.31-19.08,3.52,1,2.14,1.81,3.89,2.76,5.69,3,5.75,6.05,11.54,9,17.29,1.76,3.31.94,5.6-3.24,7.2-1.46-2.4-3.12-4.87-4.65-7.42-.95-1.44-1.78-4-2.9-4.12-1.57-.13-3.71,1.18-4.9,2.43-1.53,1.61-2.45,3.87-4.76,7.66-2.69-5.55-3.95-10.09-6.83-13.51-3.13-3.73-1.41-7.47-1.89-11.19-.76-6.58-2.51-13.69-.95-19.91,1.93-7.83.15-13.34-5.42-18.16-8.31-7.15-10.83-17-13.59-26.88a17.63,17.63,0,0,0-1.9-3.59c-1.38.74-3.39,1.28-4,2.48a12.08,12.08,0,0,0-.86,6.2,88.07,88.07,0,0,0,2.29,11.77,34,34,0,0,0,4,8.94c3.89,6.16,8.19,12.09,12.11,18.13,1.64,2.58,1.77,5.16-1.88,6.93a50.53,50.53,0,0,0-4.25-5,3.57,3.57,0,0,0-2.91-.67c-.49.09-1,1.53-.92,2.26,1.35,6.53-3.13,9.09-7.75,11-4.91,2.07-10.8,2.47-12.49,10.26-5.37-6.61-11.4-10.64-13.66-19.87,4.22,1.29,7.31,1.77,9.89,3.14,5.3,2.66,12.66,3.52,14.65.78,3.37-4.62,1.33-9.28-1.11-13.37C427.67,402.5,421.67,392.71,415.73,382.7Zm161.14,61.38c0-.11.2-.29.23-.39,3,.69,6.24,2.25,9,1.73,3.27-.5,7.14-2.21,9.06-4.73,1-1.32-.81-6-2.61-8.07-5.52-6.07-11.67-11.65-17.64-17.39-3.73-3.68-8.11-4.44-13.24-3.13-8.15,2.12-12.51-.25-13.06-8.26-.33-4.95-2.81-7.78-6.24-8.26-2.31-.36-5.59,2.8-7.77,5-4.83,4.86-9.06,10.38-14,15.22-5.65,5.65-4.5,14,3.3,16a49.1,49.1,0,0,0,16.19,1c8.54-.74,16.7-1,24.1,4.6C568.15,440.14,572.69,441.88,576.87,444.08Zm364.57-13.27c-.52.18-1,.51-1.49.7-1.35,12.74-2.92,25.41-3.93,38.14s-1.6,25.24-2.44,37.79c-.8,0-1.5,0-2.3,0-.14-5.58-.42-11.09-.56-16.67-.7,0-1.29.07-2,.09-1.66,10.34-5.17,20.69.43,31,4.58,8.44,6.27,17.26,4.44,26.63-2.1,10.66-4.6,21.09-7.13,31.63-.75,3.23-2,6.43-3.39,11.08-2.81-5.13-4.68-8.47-7-12.64-1.5,1.5-3.18,2.49-3.85,3.9-5.1,11-4.66,22.81-2.08,34,1.49,6.46,3.18,12.63,2.41,19.31a23.62,23.62,0,0,0,.09,3.84c.46,0,.88.15,1.33.18.76-1.73,1.52-3.46,2.21-5.33,11.53-34.32,20.92-69.18,25.07-105.41a495.15,495.15,0,0,0,2-90.21C943.25,436.21,942.1,433.55,941.44,430.81ZM649.7,457.23c-5.2,2.68-9.92,13.58-8.19,18.5a6,6,0,0,0,1.52,2.19c2.71,2.1,5.29,5,8.43,6,3.34,1.14,7.82,1.58,10.86.32,1.7-.63,2.23-5.78,2.09-8.71-.62-7.8-1.93-15.59-3-23.31-.72-4.83-.43-10.28-2.8-14.24-4.45-7.36-10.37-14-16-20.58-1.37-1.57-4.44-2.85-6.42-2.42-1.49.35-3.12,3.43-3.28,5.46-.74,9.58.88,18.61,7.87,25.94C643.82,449.66,646.5,453.37,649.7,457.23ZM850.76,193.66c-7.25-19.3-59.82-70.45-73.09-73.47,1.1,3.22,1.73,9.07,4.77,13.11,13,17.48,26.83,34.52,40.28,51.67.4.58.95,1.44,1.51,1.5,1.09.21,2.8.28,3.31-.26s.34-3-.15-3.28c-5.48-2.48-2.57-7.47-4.49-11.75a22.28,22.28,0,0,1,2.75,1.18c5.22,4.83,14.74,5.78,14.47,15.73,0,.46,1,1,1.67,1.32C844.58,190.84,847.44,192.06,850.76,193.66Zm-209.2,348c-1.7,1.79-2.5,3.27-3.44,3.33-4.26.32-7.21,2.41-6.69,6.38a19.87,19.87,0,0,0,4.68,9.62c3.56,4.21,6.28,8.15,5.31,14-.16.88.89,2.35,1.75,3,.38.23,2-.54,2.55-1.18a13.25,13.25,0,0,0,1.8-3.26c4.53,2.54,5.38,5.8,3.07,11.09-1.61,3.78-.47,6.09,3.7,5.64s9-.72,12-3c7-5.23,13.25-11.64,19.8-17.6a14.1,14.1,0,0,0-.15-2.12c-10,6.18-18.57,4.48-27.85-1C648.63,560.75,644.42,552.66,641.56,541.63ZM530.88,285c-1.88-1.39-2.64-2.31-3.59-2.6-5.77-1.88-10.78-4-17.73-1.27-6.57,2.61-10.94,5.2-13.53,11.79-.92,2.26-5,4.35-7.77,4.66-6.41.58-6.46,0-6.33,6.37-3.33-1.94-5.53-7.22-10.22-3.58,2.35,8.56,7.78,10.8,16,9.27,2.81-.52,5.94,1.7,8.93,2.5,1.69.52,3.55,1.2,5.23,1,5.74-.67,7.6-5.64,10.26-9.79C516.74,296.12,519,286.64,530.88,285ZM937.79,406.5l1.56-.56c0-17.18-15-76.25-21.51-81,.92,3.4,1.57,5.79,2.34,8.57-5.56-8.63-10.79-16.8-15.95-24.84-2.21,5-4,8.82-5.61,12.71a2.44,2.44,0,0,0,.4,2.08c2,3.16,4.13,6.11,6.49,9.72,1.58-2.52,2.62-4.05,4.3-6.53,1.54,7,2.71,13.05,4.18,18.81a13.57,13.57,0,0,0,3,4.74c1.44,1.71,4.08,2.87,4.79,4.7,4.16,11.31,8,22.76,11.68,34.26C935.23,394.87,936.32,400.74,937.79,406.5ZM910.85,305.14a20.73,20.73,0,0,1,1.82-1.06c-12.12-32.08-27-62.71-48.72-89.78,1.42,4.82,3.86,8.91,6.24,13.22,5.12,9.29,11.27,18.22,14.94,28.11A243.32,243.32,0,0,0,907.5,301C908.58,302.37,909.8,303.67,910.85,305.14ZM757.71,100.94c.44-.68.74-1.28,1.17-2A418.19,418.19,0,0,0,660.21,42.4a4.72,4.72,0,0,0,1.84,3.79C667.8,50,673.62,54,679.64,57.34c3.26,1.8,7.19,2.54,10.88,3.67,2.53.77,5.57.66,7.8,2,14.08,8.69,27.88,17.52,41.79,26.39C746,93.2,751.85,97.07,757.71,100.94ZM528.29,254.19c-.56-.41-1-.78-1.6-1.19-6.07,1.38-11.52,4.1-15,9.73-2.08,3.41-1.2,6.56,2.13,8.5s7.7,2.36,9.52-1.7C525.66,264.69,526.71,259.36,528.29,254.19ZM279.3,54.37c.4.58.8,1.16,1.13,1.61,6.27-1.66,12.11-4.14,16.91-8.91,1-1,1.19-2.75,1.75-4.19-1.64.07-3.57-.4-4.81.26-4,2.23-7.73,4.9-11.51,7.44A35.6,35.6,0,0,0,279.3,54.37ZM588.45,257.11c1.29.29,2.25.93,3,.7a47.57,47.57,0,0,0,5.42-2.27c-1.12-1.61-2-3.51-3.54-4.66a10,10,0,0,0-5.14-1.68,38.27,38.27,0,0,0-6.26.85,51.84,51.84,0,0,0,4,5.73C586.41,256.61,587.74,256.78,588.45,257.11Zm-56.4-3.51c3.83-1.59,7.85-3,11.64-4.86,1.07-.48,2.34-2.75,1.94-3.33A5.75,5.75,0,0,0,542,243C537.11,242.34,533.46,245.61,532.05,253.6ZM754.88,103.76A21.83,21.83,0,0,1,753.4,106c5.46,4.43,10.13,9.9,17.46,11.22.44-.68.84-1.25,1.28-1.92Q763.46,109.68,754.88,103.76ZM571.08,408.27c2.65-1.5,4.48-2.55,6.44-3.69-.91-1.54-1.92-4.28-2.73-4.29-2.61.24-5.16,1.42-7.73,2.25C568.15,404.26,569.31,405.77,571.08,408.27ZM570,286.65c-2.28-3.12-3.69-5.28-5.41-7.19-.26-.31-2.15,1-3.25,1.55a64.26,64.26,0,0,0,3.7,6.78C565.35,288.13,567.35,287.24,570,286.65ZM454,36.05c4.08-1.64,9.9.83,12-5.23C461.35,31.25,456.38,30.54,454,36.05Zm71.49,277.7c2.27-2.53,4.16-3.8,4.14-4.85-.12-1.88-1.46-3.56-2.38-5.45-1.41.83-3.83,1.59-3.91,2.61C523.32,308,524.42,310.08,525.49,313.75ZM497.85,57.84c0,.59.21,1.21.26,1.8a9.88,9.88,0,0,0,2.66,1.86,10.8,10.8,0,0,0,4.88,1c.83-.09,1.53-1.61,2.38-2.51-1.21-.94-2.3-2.66-3.63-2.84C502.19,56.85,500,57.57,497.85,57.84Z"/></g></g></g></g></g></g></g></svg>