<?xml version="1.0" encoding="utf-8"?>
<!-- Generator: Adobe Illustrator 26.0.2, SVG Export Plug-In . SVG Version: 6.00 Build 0)  -->
<svg version="1.1" id="Layer_1" xmlns="http://www.w3.org/2000/svg" xmlns:xlink="http://www.w3.org/1999/xlink" x="0px" y="0px"
	 viewBox="0 0 29 25.8" style="enable-background:new 0 0 29 25.8;" xml:space="preserve">
<style type="text/css">
	.st0{fill:#F6B222;}
</style>
<path class="st0" d="M13.3,5.6c0-0.7,0.5-1.2,1.2-1.2s1.2,0.5,1.2,1.2c0,0.7-0.5,1.2-1.2,1.2S13.3,6.3,13.3,5.6z M13.8,15.7
	c-1.6-2-5.3-6.9-5.3-9.6c0-3.3,2.7-6,6-6s6,2.7,6,6c0,2.7-3.7,7.6-5.3,9.6C14.9,16.2,14.1,16.2,13.8,15.7L13.8,15.7z M18.5,7.8
	C18.8,7,18.9,6.4,18.9,6c0-2.4-2-4.4-4.4-4.4s-4.4,2-4.4,4.4c0,0.4,0.1,1,0.5,1.7c0.3,0.8,0.8,1.7,1.3,2.5c0.9,1.4,1.9,2.8,2.6,3.7
	c0.8-1,1.8-2.3,2.6-3.7C17.7,9.4,18.1,8.6,18.5,7.8L18.5,7.8z M20.4,11.2c0,0-0.1,0-0.1,0c0.4-0.7,0.8-1.4,1.1-2.2l5.9-2.4
	C28.1,6.4,29,7,29,7.8v13.6c0,0.5-0.3,0.9-0.8,1.1l-7.8,3.1c-0.2,0.1-0.3,0.1-0.5,0l-11-3.1l-7.2,2.9C0.9,25.8,0,25.2,0,24.4V10.7
	c0-0.5,0.3-0.9,0.8-1.1L7,7.1c0.1,0.5,0.3,1,0.5,1.5L1.6,11v12.8l6.4-2.6v-5.9c0-0.4,0.4-0.8,0.8-0.8c0.4,0,0.8,0.4,0.8,0.8v5.9
	l9.7,2.8v-8.6c0-0.4,0.4-0.8,0.8-0.8c0.4,0,0.8,0.4,0.8,0.8v8.5l6.4-2.6V8.4L20.4,11.2z"/>
</svg>
