<svg xmlns="http://www.w3.org/2000/svg" viewBox="0 0 29 22"><defs><style>.cls-1{fill:#f6b222;}</style></defs><g id="Layer_2" data-name="Layer 2"><g id="Layer_1-2" data-name="Layer 1"><path class="cls-1" d="M25.62,0H3.38A3.38,3.38,0,0,0,0,3.38V18.62A3.38,3.38,0,0,0,3.38,22H25.62A3.38,3.38,0,0,0,29,18.62V3.38A3.38,3.38,0,0,0,25.62,0ZM3.38,1.83H25.62a1.56,1.56,0,0,1,1.55,1.55v.7L14.5,11.74,1.83,4.08v-.7A1.56,1.56,0,0,1,3.38,1.83Zm0,18.34a1.56,1.56,0,0,1-1.55-1.55V6.26L14,13.6a.88.88,0,0,0,1,0L27.17,6.26V18.62a1.56,1.56,0,0,1-1.55,1.55Z"/></g></g></svg>