<svg xmlns="http://www.w3.org/2000/svg" viewBox="0 0 28 28"><defs><style>.cls-1{fill:#f6b222;}</style></defs><g id="Layer_2" data-name="Layer 2"><g id="Layer_1-2" data-name="Layer 1"><path class="cls-1" d="M5.67,18.61a29.9,29.9,0,0,0,9.92,7.74A15.39,15.39,0,0,0,21.14,28h.4a4.59,4.59,0,0,0,3.56-1.53s0,0,0,0a15.13,15.13,0,0,1,1.12-1.16c.27-.26.55-.53.82-.81a2.79,2.79,0,0,0,0-4.17l-3.5-3.49a2.88,2.88,0,0,0-2-.94,2.92,2.92,0,0,0-2.07.94l-2.09,2.08-.58-.31c-.22-.1-.43-.22-.64-.34a22.14,22.14,0,0,1-5.27-4.79,12.71,12.71,0,0,1-1.78-2.83c.55-.49,1.06-1,1.56-1.51l.53-.54a3,3,0,0,0,1-2.09,2.93,2.93,0,0,0-1-2.09L9.44,2.66l-.6-.6c-.38-.39-.78-.8-1.18-1.17a2.94,2.94,0,0,0-2-.89A3,3,0,0,0,3.54.9L1.36,3.07A4.49,4.49,0,0,0,0,5.92a10.75,10.75,0,0,0,.81,4.64,27,27,0,0,0,4.84,8ZM1.45,6.05a3.06,3.06,0,0,1,.92-2L4.54,1.91a1.59,1.59,0,0,1,1.07-.49,1.49,1.49,0,0,1,1,.51c.39.36.75.73,1.15,1.13l.61.62,1.73,1.73a1.57,1.57,0,0,1,.55,1.08,1.59,1.59,0,0,1-.55,1.09l-.54.54c-.54.55-1,1.06-1.61,1.56l0,0A1.15,1.15,0,0,0,7.68,11l0,0a13.64,13.64,0,0,0,2,3.31,23.19,23.19,0,0,0,5.62,5.1c.25.16.52.29.77.42a6.34,6.34,0,0,1,.64.34l.06,0A1.17,1.17,0,0,0,18.26,20l2.18-2.17a1.55,1.55,0,0,1,1.07-.52,1.49,1.49,0,0,1,1,.52l3.51,3.49a1.4,1.4,0,0,1,0,2.19c-.24.26-.5.51-.77.77s-.83.8-1.22,1.26a3.21,3.21,0,0,1-2.5,1.06l-.3,0a14.05,14.05,0,0,1-5-1.49,28.46,28.46,0,0,1-9.44-7.37,26,26,0,0,1-4.6-7.63A9.22,9.22,0,0,1,1.45,6.05Z"/></g></g></svg>