<svg xmlns="http://www.w3.org/2000/svg" viewBox="0 0 189.49 149.18"><defs><style>.cls-1{fill:#f58220;}.cls-2{fill:#00476e;}.cls-3{fill:#118acb;}.cls-4{font-size:6.98px;fill:#58595b;font-family:CronosPro-Regular, Cronos Pro;}.cls-5{letter-spacing:0.01em;}.cls-6{letter-spacing:0em;}.cls-7{letter-spacing:0em;}.cls-8{letter-spacing:0em;}.cls-9{letter-spacing:-0.02em;}.cls-10{letter-spacing:-0.01em;}.cls-11{letter-spacing:-0.01em;}.cls-12{letter-spacing:-0.01em;}.cls-13{letter-spacing:0.01em;}.cls-14{letter-spacing:0em;}.cls-15{letter-spacing:0em;}.cls-16{letter-spacing:0em;}.cls-17{letter-spacing:0.01em;}.cls-18{letter-spacing:-0.01em;}.cls-19{letter-spacing:0em;}.cls-20{letter-spacing:0.01em;}.cls-21{letter-spacing:-0.01em;}.cls-22{letter-spacing:-0.01em;}.cls-23{letter-spacing:0em;}.cls-24{letter-spacing:0em;}.cls-25{letter-spacing:0em;}.cls-26{letter-spacing:0.02em;}.cls-27{letter-spacing:-0.01em;}.cls-28{letter-spacing:-0.01em;}.cls-29{letter-spacing:0em;}.cls-30{fill:#f1f1f2;}.cls-31,.cls-34{font-size:8.1px;font-family:CronosPro-Lt, Cronos Pro;}.cls-31,.cls-34,.cls-37{fill:#6d6e71;}.cls-32,.cls-34{letter-spacing:-0.03em;}.cls-33{letter-spacing:-0.02em;}.cls-35{letter-spacing:0em;}.cls-36{fill:none;stroke:#6d6e71;stroke-width:0.35px;}</style></defs><g id="Layer_2" data-name="Layer 2"><g id="Tasnee_Sahara_Ole_ns_Company_TSOC_" data-name="Tasnee &amp; Sahara Oleï¬ns Company (TSOC)"><path class="cls-1" d="M98.49,31.89A49.62,49.62,0,0,0,15.22,16.5L52.16,49.61Z"/><path class="cls-2" d="M15.22,16.5a49.6,49.6,0,1,0,86.41,36.8L52.16,49.61Z"/><path class="cls-3" d="M101.63,53.3a49.63,49.63,0,0,0-3.14-21.41L52.16,49.61Z"/><path class="cls-2" d="M1.86,127.65A1.86,1.86,0,1,0,0,125.8a1.85,1.85,0,0,0,1.86,1.85"/><text class="cls-4" transform="translate(3.71 128.09)"><tspan xml:space="preserve">  </tspan><tspan class="cls-5" x="2.96" y="0">S</tspan><tspan x="6.05" y="0">a</tspan><tspan class="cls-6" x="9.04" y="0">h</tspan><tspan class="cls-7" x="12.61" y="0">a</tspan><tspan class="cls-8" x="15.6" y="0">r</tspan><tspan x="17.9" y="0">a </tspan><tspan class="cls-9" x="22.38" y="0">P</tspan><tspan class="cls-10" x="25.67" y="0">e</tspan><tspan class="cls-11" x="28.65" y="0">t</tspan><tspan class="cls-12" x="30.94" y="0">r</tspan><tspan class="cls-13" x="33.14" y="0">o</tspan><tspan class="cls-14" x="36.74" y="0">c</tspan><tspan class="cls-15" x="39.63" y="0">h</tspan><tspan class="cls-10" x="43.22" y="0">e</tspan><tspan class="cls-16" x="46.2" y="0">m</tspan><tspan class="cls-15" x="51.71" y="0">i</tspan><tspan class="cls-17" x="53.26" y="0">c</tspan><tspan x="56.23" y="0">al </tspan><tspan class="cls-18" x="62.25" y="0">C</tspan><tspan class="cls-19" x="66.29" y="0">o</tspan><tspan x="69.8" y="0">m</tspan><tspan class="cls-20" x="75.31" y="0">p</tspan><tspan class="cls-7" x="78.95" y="0">a</tspan><tspan class="cls-21" x="81.94" y="0">n</tspan><tspan class="cls-7" x="85.47" y="0">y</tspan><tspan x="88.41" y="0">- </tspan><tspan class="cls-5" x="91.98" y="0">S</tspan><tspan x="95.07" y="0">a</tspan><tspan class="cls-6" x="98.06" y="0">h</tspan><tspan class="cls-7" x="101.63" y="0">a</tspan><tspan class="cls-8" x="104.62" y="0">r</tspan><tspan x="106.92" y="0">a</tspan></text><path class="cls-1" d="M1.86,137.25A1.86,1.86,0,1,0,0,135.4a1.85,1.85,0,0,0,1.86,1.85"/><text class="cls-4" transform="translate(3.71 137.69)"><tspan xml:space="preserve">  N</tspan><tspan class="cls-22" x="7.58" y="0">a</tspan><tspan class="cls-18" x="10.54" y="0">t</tspan><tspan class="cls-23" x="12.84" y="0">i</tspan><tspan class="cls-19" x="14.4" y="0">o</tspan><tspan class="cls-24" x="17.91" y="0">n</tspan><tspan x="21.49" y="0">al </tspan><tspan class="cls-23" x="27.5" y="0">I</tspan><tspan class="cls-19" x="29.18" y="0">n</tspan><tspan x="32.79" y="0">d</tspan><tspan class="cls-25" x="36.39" y="0">u</tspan><tspan class="cls-14" x="40" y="0">s</tspan><tspan class="cls-11" x="42.35" y="0">t</tspan><tspan class="cls-16" x="44.64" y="0">r</tspan><tspan class="cls-7" x="46.92" y="0">i</tspan><tspan x="48.46" y="0">al</tspan><tspan class="cls-10" x="53" y="0">i</tspan><tspan class="cls-26" x="54.5" y="0">z</tspan><tspan class="cls-27" x="57.28" y="0">a</tspan><tspan class="cls-28" x="60.24" y="0">t</tspan><tspan class="cls-23" x="62.54" y="0">i</tspan><tspan class="cls-19" x="64.09" y="0">o</tspan><tspan class="cls-16" x="67.6" y="0">n </tspan><tspan class="cls-18" x="72.69" y="0">C</tspan><tspan class="cls-19" x="76.72" y="0">o</tspan><tspan x="80.24" y="0">m</tspan><tspan class="cls-20" x="85.75" y="0">p</tspan><tspan class="cls-7" x="89.39" y="0">a</tspan><tspan class="cls-21" x="92.38" y="0">n</tspan><tspan x="95.91" y="0">y</tspan></text><path class="cls-3" d="M1.86,146.85A1.86,1.86,0,1,0,0,145a1.85,1.85,0,0,0,1.86,1.85"/><text class="cls-4" transform="translate(3.71 147.29)"><tspan xml:space="preserve">  G</tspan><tspan class="cls-29" x="7.49" y="0">O</tspan><tspan class="cls-14" x="12.48" y="0">S</tspan><tspan x="15.46" y="0">I</tspan></text><path class="cls-30" d="M78.46,77.82C94.29,63.06,95.33,38.47,80.8,22.89S41.67,6.64,25.85,21.4,9,60.74,23.51,76.32s39.13,16.25,54.95,1.5"/><text class="cls-31" transform="translate(169.73 81.66)"><tspan class="cls-32">32</tspan><tspan class="cls-33" x="6.74" y="0">.</tspan><tspan class="cls-32" x="7.7" y="0">55</tspan><tspan x="14.44" y="0">%</tspan></text><text class="cls-34" transform="translate(180.79 53.49)">7<tspan class="cls-35" x="3.37" y="0">%</tspan></text><text class="cls-31" transform="translate(169.73 28.98)"><tspan class="cls-32">60</tspan><tspan class="cls-33" x="6.74" y="0">.</tspan><tspan class="cls-32" x="7.7" y="0">45</tspan><tspan x="14.44" y="0">%</tspan></text><line class="cls-36" x1="87.5" y1="21.26" x2="189.48" y2="21.26"/><path class="cls-37" d="M87.5,22a.7.7,0,1,0-.7-.69.7.7,0,0,0,.7.69"/><line class="cls-36" x1="95.65" y1="45.67" x2="189.48" y2="45.67"/><path class="cls-37" d="M95.65,46.37a.7.7,0,1,0-.7-.7.7.7,0,0,0,.7.7"/><line class="cls-36" x1="89.77" y1="73.73" x2="189.48" y2="73.73"/><path class="cls-37" d="M89.77,74.43a.7.7,0,0,0,0-1.4.7.7,0,0,0,0,1.4"/></g></g></svg>