<svg xmlns="http://www.w3.org/2000/svg" xmlns:xlink="http://www.w3.org/1999/xlink" viewBox="0 0 476 229"><defs><style>.cls-1{fill:url(#linear-gradient);}.cls-2,.cls-3{fill:#004876;}.cls-3{fill-rule:evenodd;}</style><linearGradient id="linear-gradient" x1="-66.73" y1="509.27" x2="-65.73" y2="509.27" gradientTransform="matrix(247, 0, 0, -229, 16581.93, 116738.38)" gradientUnits="userSpaceOnUse"><stop offset="0" stop-color="#f7db2a"/><stop offset="0.3" stop-color="#f7d121"/><stop offset="0.81" stop-color="#f6b60a"/><stop offset="1" stop-color="#f6aa00"/></linearGradient></defs><g id="Layer_2" data-name="Layer 2"><g id="Layer_1-2" data-name="Layer 1"><path class="cls-1" d="M320.94,93.92A89.94,89.94,0,0,0,322,77.38V75.92l-.72-6.18-.18-1.09c-.36-1.27-.54-2.36-.9-3.45a53.34,53.34,0,0,0-20-30,50.06,50.06,0,0,0-27.91-10.37,59.11,59.11,0,0,0-13.86,1.28c-10.62,2.18-19.63,7.45-27.73,16.54a31.54,31.54,0,0,1-2.34,2.73l-1.26,1.45a12.21,12.21,0,0,1-16.74,1.82l-.54-.36A10.07,10.07,0,0,1,208.24,47,57.72,57.72,0,0,0,191,37.56,45.81,45.81,0,0,0,176,35.2a19.56,19.56,0,0,0-3.24.18c-7,.36-12.6,1.64-17.46,4C141.44,45.92,132.26,55.92,127,70.29a52.68,52.68,0,0,0-2.34,27.09,37.72,37.72,0,0,0,.72,4,82.56,82.56,0,0,0,2.52,8.91,47.71,47.71,0,0,0,1.8,4.55A105.48,105.48,0,0,0,134.6,125a102.36,102.36,0,0,0,12.06,17.09c9,10.72,20.17,20.72,34.21,30.72.72.37,1.26.91,2,1.28,2,1.49,4.13,2.89,6.3,4.18,2.16,1.45,4.5,2.91,6.84,4.36,3.78,2.36,7.75,4.55,11.71,6.73,2,1.09,4,2.18,6.12,3.27,3.78,2,7.74,4,11.7,5.82,3.42,1.63,6.84,3.09,10.44,4.54a7.17,7.17,0,0,0,1.8.73c3.42-2.36,6.67-4.91,9.91-7.27,3.6-2.73,7-5.64,10.44-8.55,4-3.27,7.56-6.72,11.16-10,3.24-3.27,6.48-6.36,9.54-9.63,9.37-10,21.07-23.45,29.53-38.73.9-1.63,1.8-3.27,2.52-4.9.36-.55.54-1.1.9-1.64,1.44-2.91,2.7-5.82,3.78-8.55.18-.18.18-.36.18-.72.9-2.18,1.62-4.18,2.34-6.37h25.39c-.54,2.19-1.08,4.19-1.8,6.37,0,.18-.18.36-.18.54-.9,2.91-2,5.64-3.06,8.55a6.45,6.45,0,0,1-.72,1.63,145.86,145.86,0,0,1-7.93,16.18c-2.52,4.37-5.22,8.73-7.92,12.91a127.29,127.29,0,0,1-7.92,10.73c-4.32,5.63-8.82,10.54-12.78,15.09-1.44,1.63-2.88,3.09-4.14,4.54-2,2-4,4-5.94,6.18a312.65,312.65,0,0,1-40.69,34,18.87,18.87,0,0,0-2,1.46l-1.08.91a12.06,12.06,0,0,1-6.13,2.36H241c-.54,0-1.08.18-1.44.18a12.76,12.76,0,0,1-5.22-1.09l-.72-.36c-.18-.19-.54-.19-.72-.37a326.09,326.09,0,0,1-47.71-23.81c-2.34-1.46-4.5-2.73-6.84-4.19-2.7-1.63-5.4-3.45-8.1-5.27-.36-.36-.9-.54-1.26-.91-3.6-2.54-7-5.09-10.44-7.63-2.7-2-5.22-4.18-7.75-6.18a196.58,196.58,0,0,1-15.3-14.37c-2.52-2.72-5-5.45-7.38-8.18A125.17,125.17,0,0,1,108,124.28c-1.44-3.45-2.7-6.73-3.78-10.18a39.13,39.13,0,0,1-1.62-6.18c-.18-.73-.36-1.46-.54-2.36a73.53,73.53,0,0,1-1.44-8.73,75.42,75.42,0,0,1,4-35.27C111.92,41.2,125.6,26.29,145.4,17c7.56-3.64,16.39-5.64,26.47-6.18a72.23,72.23,0,0,1,27.37,3.45,76,76,0,0,1,16.92,8A73.34,73.34,0,0,1,254,1.75,82.4,82.4,0,0,1,274.31.11a75.08,75.08,0,0,1,41.23,15.45,77.4,77.4,0,0,1,28.81,43.09c.36,1.27.72,2.73,1.08,4l.36,1.64a3.11,3.11,0,0,1,.18,1.27l.9,8a8.83,8.83,0,0,1,0,2.18v.36a90,90,0,0,1-1.26,20.55H320.22a8.45,8.45,0,0,0,.72-2.73Z"/><path class="cls-2" d="M190.57,92.68H178.75v13.47c0,3.15.55,8.93-5.45,8.93H163.11V110.7c0-8-4.9-11.55-12.18-12.07H103.48c-8.18,0-13.81,3.5-13.81,12.07v4.73H70.58c-3.64,0-4.91-2.1-5.28-4.55V92.68H53.49v18.2c-.37,2.27-1.46,4.37-4.73,4.55H40.21c-2.72-7.35-10.36-11.38-19.09-11.38-6.18,0-11.63,1.93-15.27,5.6-1.63,1.58-4.18,5.6-3.82,9.28V145H13.67v-9.27a12.13,12.13,0,0,0,1.64,1.05A16.78,16.78,0,0,0,20.4,138h.72c9.28.7,17.64-4.72,19.64-13.12H53.12c6.18,0,8.91-2.28,10-6.3a10.86,10.86,0,0,0,2.55,4A8.86,8.86,0,0,0,72,124.88H178.75a11.26,11.26,0,0,0,10.36-6.83v-.17c1.64-3.85,1.27-8,1.46-11.9C190.75,105.1,191.11,92.85,190.57,92.68ZM21.12,128.38c-4.72,0-7.63-3.15-7.63-7.18S16.22,114,21.12,114c4.73,0,7.64,3.32,7.64,7.17C28.76,125.23,25.85,128.38,21.12,128.38ZM99.3,115.43v-1.58c0-5.6,5.46-5.25,8.73-5.25h7.09l-7.27,6.65H99.3Zm54.36,0H122.94l7.45-6.65h14.73c3.09,0,8.54-.53,8.72,5.25v1.4Zm242.89,13.3a6.3,6.3,0,1,0,6.55,6.3A6.4,6.4,0,0,0,396.55,128.73Zm-136.17,0a6.3,6.3,0,1,0,6.54,6.3A6.39,6.39,0,0,0,260.38,128.73Zm17.45,0a6.3,6.3,0,1,0,6.55,6.3A6.4,6.4,0,0,0,277.83,128.73Z"/><path class="cls-2" d="M276.74,115.43c-3.63,0-4.91-2.1-5.27-4.55V92.68H259.65v18.2c-.36,2.27-1.45,4.37-4.72,4.55h-8.55c-2.73-7.35-10.36-11.38-19.09-11.38-6.18,0-11.63,1.93-15.27,5.6-1.64,1.58-4.18,5.6-3.82,9.28V145h11.64v-9.27a12.87,12.87,0,0,0,1.63,1.05,23.11,23.11,0,0,0,5.28,1.22h.72c9.27.7,17.64-4.72,19.64-13.12h12.36c6.18,0,8.91-2.1,10-6.3a10.86,10.86,0,0,0,2.55,4,8.84,8.84,0,0,0,6.36,2.28h34c.36-.53.54-1,.91-1.58,1.45-2.8,2.72-5.6,3.81-8.22l-40.36.35Zm-49.63,13.12c-4.73,0-7.64-3.15-7.64-7.17s2.73-7.35,7.64-7.35,7.64,3.32,7.64,7.35S232,128.55,227.11,128.55Z"/><path class="cls-2" d="M474,92.68v20.47c0,6.65-2.91,12.08-11.09,12.08-4.55,0-8.91-2.1-11.09-6-2.36,4.2-6.36,6-11.09,6a12.75,12.75,0,0,1-10.36-4.9l-1.09-1.75c-1.64,5.25-4.91,6.82-10.37,6.82H405.64c-4.18,0-7.63-1.4-9.45-5.07l-.91-1.93c-1.27,4.55-4.55,7-10.36,7H339.46a6.51,6.51,0,0,1,.73-1.57c1.09-2.8,2.18-5.43,3.09-8.23H360V114c0-4.55-3.64-5.08-6.55-5.25h-62v-10l12.36-11.55H320L307.1,98.63h48.73c8.18,0,13.81,3.5,13.81,12.07v4.38h10.18c5.82,0,5.28-6,5.28-8.93V92.68h11.81v14.17c0,3.15-.54,8.4,5.28,8.4h10.72c5.82,0,5.28-5.42,5.28-8.4V92.68h12V107.9s-.73,8.58,5.09,8.58c5.09-.18,5.09-5.43,5.09-8.93v-15H452v15c0,3.68.18,8.58,5.46,8.58,4.9,0,4.72-5.43,4.72-8.58v-15H474ZM175.48,75A6.3,6.3,0,1,0,182,81.3,6.4,6.4,0,0,0,175.48,75Zm17.45,0a6.3,6.3,0,1,0,6.54,6.3A6.4,6.4,0,0,0,192.93,75ZM50.21,75a6.3,6.3,0,1,0,6.55,6.3A6.4,6.4,0,0,0,50.21,75Zm17.46,0a6.3,6.3,0,1,0,6.54,6.3A6.4,6.4,0,0,0,67.67,75Z"/><path class="cls-2" d="M326.94,167.67A13.36,13.36,0,0,0,316,162.43a13.12,13.12,0,0,0-5.29,1.09,13.88,13.88,0,0,0-4.19,2.7,16.52,16.52,0,0,0-2.74,4.15,12.84,12.84,0,0,0-1.09,5.23,12.26,12.26,0,0,0,1.09,5.24,13.82,13.82,0,0,0,2.74,4.15,13.4,13.4,0,0,0,4.19,2.88,12.51,12.51,0,0,0,5.11,1.09c4,0,7.67-1.63,10.95-5.06v14.8l-1.28.36A24.75,24.75,0,0,1,320,200.5a22.7,22.7,0,0,1-4.93.54,25.63,25.63,0,0,1-9.67-1.8A27.65,27.65,0,0,1,297.2,194a28.38,28.38,0,0,1-5.65-8.12,23.66,23.66,0,0,1-2.19-10.29,24.22,24.22,0,0,1,2.19-10.28,25.29,25.29,0,0,1,5.65-7.94,27.78,27.78,0,0,1,8.21-5.23,25.92,25.92,0,0,1,9.86-1.8,28.66,28.66,0,0,1,5.65.54,42.78,42.78,0,0,1,5.84,1.8v15Zm31.93-.73h11.86v32.84H358.87v-3.61a12.52,12.52,0,0,1-10.22,4.69,17.3,17.3,0,0,1-6.75-1.26,18.2,18.2,0,0,1-5.29-3.61,16.26,16.26,0,0,1-3.47-5.59,18,18,0,0,1-1.27-7,16.74,16.74,0,0,1,1.27-6.67,16.3,16.3,0,0,1,3.47-5.6,15.83,15.83,0,0,1,5.29-3.78,16,16,0,0,1,6.75-1.45,13.07,13.07,0,0,1,10.22,4.33v-3.25Zm-14.78,16.42a9,9,0,0,0,.55,3.07,5.43,5.43,0,0,0,1.64,2.34,6.85,6.85,0,0,0,2.37,1.63,8.63,8.63,0,0,0,3.1.54,7.63,7.63,0,0,0,2.92-.54,6.8,6.8,0,0,0,2.38-1.63,6.91,6.91,0,0,0,1.64-2.34,8,8,0,0,0,0-5.77,5.58,5.58,0,0,0-1.64-2.35,6.91,6.91,0,0,0-2.38-1.62,7.63,7.63,0,0,0-2.92-.54,9.41,9.41,0,0,0-3.1.54,7,7,0,0,0-2.37,1.62,6.72,6.72,0,0,0-1.64,2.35A5.87,5.87,0,0,0,344.09,183.36Zm33.39-16.42h11.68v5.42a13.36,13.36,0,0,1,4.56-4.51,12.34,12.34,0,0,1,6.38-1.63h1.1a3.64,3.64,0,0,1,1.28.18v11a12.34,12.34,0,0,0-5.11-1.08c-2.74,0-4.75.72-6.21,2.34a11.24,11.24,0,0,0-2,7v14.07H377.48V166.94Zm39.95,18.41q0,7.58,7.12,7.57a6.62,6.62,0,0,0,5.84-3.06H441.7c-2.37,7.57-8,11.36-17.15,11.36a21.36,21.36,0,0,1-7.66-1.26,16.58,16.58,0,0,1-6-3.61,17,17,0,0,1-3.83-5.59,18.08,18.08,0,0,1-1.28-7.22,18.94,18.94,0,0,1,1.28-7.39,14.88,14.88,0,0,1,3.65-5.6,16,16,0,0,1,5.83-3.61,20.14,20.14,0,0,1,7.67-1.26,21.39,21.39,0,0,1,7.66,1.26,15.29,15.29,0,0,1,5.65,3.61,15.6,15.6,0,0,1,3.65,5.78,25.56,25.56,0,0,1,1.28,7.75v1.27h-25Zm13.69-6.68a8.17,8.17,0,0,0-2.37-4,7.51,7.51,0,0,0-4.38-1.44A6.7,6.7,0,0,0,420,174.7a7.17,7.17,0,0,0-2.19,4Zm39.95-3.25a14,14,0,0,0-6.38-1.62,3.61,3.61,0,0,0-2.56.72,2,2,0,0,0-1.09,1.81,1.35,1.35,0,0,0,.18.9c.18.18.37.54.73.72a8.65,8.65,0,0,0,1.64.54c.73.18,1.65.36,2.74.72,3.28.72,5.66,1.81,7.3,3.43A8.53,8.53,0,0,1,476,189a12.24,12.24,0,0,1-1.09,5.23,8.45,8.45,0,0,1-3.29,3.79,15.52,15.52,0,0,1-4.92,2.34,23.82,23.82,0,0,1-6.39.9A26.2,26.2,0,0,1,447,197.43l4.2-8.11a17.08,17.08,0,0,0,9.3,3.24,4.44,4.44,0,0,0,2.74-.72,2.18,2.18,0,0,0,1.09-1.8,2.28,2.28,0,0,0-.18-1.08,1.37,1.37,0,0,0-.73-.73,11.28,11.28,0,0,1-1.46-.72c-.73-.18-1.46-.36-2.55-.54-3.65-.72-6.21-1.8-7.66-3.25a8,8,0,0,1-2.19-5.95,12,12,0,0,1,1.09-5.05,11.66,11.66,0,0,1,2.92-3.79,13.17,13.17,0,0,1,4.74-2.35,21.8,21.8,0,0,1,6.21-.9,27.84,27.84,0,0,1,10.76,2.17l-4.2,7.57Z"/><path class="cls-2" d="M47.62,150.17a6.5,6.5,0,1,0,6.57,6.49A6.5,6.5,0,0,0,47.62,150.17Z"/><path class="cls-3" d="M210.72,185.71c0-11.19-6.75-18.4-18.24-18.4-10.76,0-18.43,6.67-18.43,17.68,0,11.36,8.21,17.5,19.34,17.5,7.66,0,15.14-3.61,17-11.37H199.05a6,6,0,0,1-5.66,3.07c-4.92,0-7.48-2.53-7.48-7.4h24.81v-1.08Zm-24.08-5.6c.73-3.42,3.65-5.23,7.12-5.23a6.81,6.81,0,0,1,6.75,5.23Z"/><path class="cls-2" d="M135.19,148.18V201.4h11.86v-17c0-3.78,1.46-7.93,6.2-7.93s5.29,4,5.29,7.93v17H170.4V181.2c0-8.3-4-13.89-12.59-13.89a12.24,12.24,0,0,0-10.58,5.23L147.05,148H135.19Z"/><path class="cls-3" d="M78.27,177.59a7.29,7.29,0,0,1,7.66,7.4c0,4.15-2.74,7.39-7.66,7.39-4.75,0-7.66-3.24-7.66-7.39a7.4,7.4,0,0,1,7.66-7.4Zm-7.12-9H59.29V218H71.15V198.34c2.56,2.88,6.57,4.15,10.4,4.15,9.85,0,16.79-7.94,16.79-17.5,0-9.39-6.94-17.68-16.79-17.68-3.83,0-7.84,1.44-10,4.87l-.37-3.61Z"/><path class="cls-2" d="M128.44,169.29a16.89,16.89,0,0,0-7.84-2c-10.4,0-18.61,7.39-18.61,17.86,0,9.92,8.21,17.14,18.06,17.14a19.58,19.58,0,0,0,8.39-1.81v-9.92a9,9,0,0,1-5.84,2.16c-4.92,0-8.39-3.42-8.39-8.11a8.13,8.13,0,0,1,8.21-8.12,10.38,10.38,0,0,1,6,2.34v-9.56ZM34.3,155.76a32.79,32.79,0,0,0-15.33-4c-9.85,0-17,6.5-17,16.24,0,9.38,5.29,11.36,13.31,13.71,2.74.72,7.67,2,7.67,5.59,0,3.43-3.1,4.87-6.21,4.87-4.37,0-8.21-2.16-11.31-5L0,197.25a30.82,30.82,0,0,0,17.15,5.6c4.93,0,10-1.27,13.87-4.51s5.1-8.3,5.1-13c0-7.76-5.29-11.19-12-13.17l-3.28-.91c-2.19-.72-5.66-1.8-5.66-4.69,0-2.7,3.1-4,5.48-4A13.18,13.18,0,0,1,29,165.86l5.29-10.1Zm19,12.81H41.6V201.4H53.27Zm173.33,0H214.74V201.4H226.6V185.71c0-3.61,0-9.2,5.29-9.2s5.29,5.59,5.29,9.2V201.4H249V185.71c0-4,.18-9,5.65-9,4.93,0,4.93,5.59,4.93,9V201.4h11.86V180.3c0-7.58-2.92-13-11.31-13a12.8,12.8,0,0,0-11.31,6.31c-2.38-4.33-6.57-6.31-11.32-6.31A12.23,12.23,0,0,0,227,172.54l-.36-4Z"/></g></g></svg>