<svg width="192" height="88" xmlns="http://www.w3.org/2000/svg">
    <g fill="none" fill-rule="evenodd">
        <path d="M0 0h192v88H0z"/>
        <g fill="#FFF">
            <path d="m39.62 54.627-.843.055c.4-2.26.216-4.584-.535-6.752-1.876-5.374-6.998-8.862-12.613-8.954-6.339.102-11.885 4.546-13.128 10.837a13.227 13.227 0 0 0 .081 5.406c-.264.053-.528.105-.793.164a14.208 14.208 0 0 1 .513-7.863c2.09-5.576 7.379-9.29 13.314-9.35h.026c6.669.115 12.6 4.795 13.902 11.463.32 1.647.346 3.338.075 4.994z" fill-rule="nonzero"/>
            <path d="M28.066 55.861c6.079-.763 12.486-1.7 18.8-1.208 4.688.363 8.54 1.467 12.838 2.204.698.121 1.435.23 2.195.327l.457-.216a45.774 45.774 0 0 1-3.262-.481c-4.284-.793-8.128-1.942-12.81-2.365-6.306-.566-12.723.292-18.811.983-.816.092-1.655.18-2.5.262.852.17 1.694.363 2.52.576l.573-.082zM78.157 54.519c1.471-.485 3.354-.737 5.373-.881v-.043c-2.283.105-4.339.256-5.973.776-1.997.632-2.891 1.602-4.94 2.214l-.352.092.717.186c.085-.022.17-.042.252-.068 2.052-.639 2.933-1.618 4.923-2.276zM8.7 55.079a25.803 25.803 0 0 1-5.22-1.585c.088.36.186.717.283 1.074 1.765.504 3.482 1.087 5.41 1.483.698-.2 1.41-.386 2.13-.55-.897-.121-1.768-.245-2.603-.422z" fill-rule="nonzero"/>
            <path d="M17.828 54.656c4.643-.088 9.093 1.006 13.149 2.293 4.055 1.287 7.96 2.75 12.375 3.566 4.414.815 9.579.861 13.376-.632 3.139-1.225 5.25-3.42 8.982-3.88 3.142-.387 6.225.608 9.135 1.381a64.262 64.262 0 0 0 7.38 1.487.765.765 0 0 0 .04-.098 66.991 66.991 0 0 1-7.837-1.693c-2.91-.816-5.997-1.857-9.162-1.517-3.778.406-5.931 2.568-9.109 3.747-3.856 1.434-9.05 1.31-13.477.432-4.428-.878-8.336-2.417-12.398-3.75-4.062-1.333-8.522-2.489-13.194-2.469-4.568.02-12.92 2.558-12.92 2.558s.352 1.16.476 1.464l.571-.2c3.83-1.389 8.065-2.6 12.613-2.689zM74.046 65.083c-6.388.151-12.231 2.565-18.616 2.68-7.746.143-14.555-3.109-22.3-2.909a33.95 33.95 0 0 0-5.778.704c1.41-.199 2.833-.3 4.258-.304 7.748 0 14.463 3.455 22.208 3.527 6.388.062 12.297-2.188 18.685-2.162 1.939.03 3.873.202 5.788.514.737-1.077.747-1.159 1.112-1.748a33.805 33.805 0 0 0-5.357-.302zM23.584 72.435c5.22.593 9.357 2.856 14.4 3.822 6.444 1.232 13.482.22 20.072-.737 1.305-.19 2.65-.376 3.993-.543-1.667.147-3.327.327-4.949.524-6.652.789-13.755 1.618-20.205.22-5.047-1.095-9.135-3.462-14.385-4.19-3.194-.441-6.346-.232-9.5.246.238.259.63.704 1.083 1.16 3.122-.56 6.306-.855 9.49-.502zM64.901 79.817c1.197-.698 1.582-.999 2.11-1.34-4.117-1.358-8.6-.517-12.837.76-5.012 1.51-10.388 4.484-15.406 5.944.189.017.277.04.58.076 4.63-1.346 8.973-3.603 13.602-4.991 3.86-1.156 8.176-1.615 11.951-.449z" fill-rule="nonzero"/>
            <path d="M43.85 85.181c-17.056-.108-32.7-10.921-38.57-27.063C-.589 41.976 4.377 23.4 17.496 12.35 30.765 1.168 50.239-.332 65.064 8.664c14.705 8.924 22.45 26.602 19.024 43.513-3.357 16.58-16.965 29.703-33.578 32.45a41.985 41.985 0 0 1-6.66.554.409.409 0 0 0 0 .819c17.358-.095 33.224-11.06 39.279-27.443 6.137-16.604.933-35.83-12.678-47.06C56.904.32 37.234-1.161 22.226 7.957 7.261 17.037-.612 34.96 2.781 52.167 6.141 69.252 20.27 82.853 37.414 85.49c2.13.324 4.282.489 6.437.495a.409.409 0 0 0 0-.803zM102.568 38.973a2.615 2.615 0 0 0-2.61 2.62 2.615 2.615 0 0 0 2.61 2.62 2.615 2.615 0 0 0 2.61-2.62 2.615 2.615 0 0 0-2.61-2.62z" fill-rule="nonzero"/>
            <path d="M102.568 38.973a2.615 2.615 0 0 0-2.61 2.62 2.615 2.615 0 0 0 2.61 2.62 2.615 2.615 0 0 0 2.61-2.62 2.615 2.615 0 0 0-2.61-2.62zM48.412 38.973a2.615 2.615 0 0 0-2.61 2.62 2.615 2.615 0 0 0 2.61 2.62 2.615 2.615 0 0 0 2.61-2.62 2.615 2.615 0 0 0-2.61-2.62zM55.342 38.973a2.615 2.615 0 0 0-2.61 2.62 2.615 2.615 0 0 0 2.61 2.62 2.615 2.615 0 0 0 2.61-2.62 2.615 2.615 0 0 0-2.61-2.62z" fill-rule="nonzero"/>
            <path d="M112.952 57.636c0-4.519-2.646-7.352-7.22-7.352-4.29 0-7.298 2.656-7.298 7.067 0 4.566 3.262 7.041 7.631 7.041 3.005 0 5.96-1.42 6.711-4.542h-4.499c-.515.881-1.233 1.218-2.238 1.218-1.928 0-2.936-1.038-2.936-2.947h9.846v-.488l.003.003zm-9.54-2.22c.284-1.369 1.413-2.093 2.777-2.093a2.635 2.635 0 0 1 2.646 2.093h-5.422z"/>
            <path d="M119.216 50.723h-4.681v13.234h4.681v-6.32c0-1.474 0-3.718 2.079-3.718 2.078 0 2.085 2.244 2.085 3.717v6.32h4.675v-6.32c0-1.575.075-3.602 2.235-3.602 1.977 0 1.928 2.243 1.928 3.602v6.32h4.678v-8.439c0-3.042-1.155-5.24-4.499-5.24a5.034 5.034 0 0 0-4.47 2.522c-.949-1.752-2.61-2.521-4.495-2.521a4.888 4.888 0 0 0-4.167 2.086l-.049-1.638v-.003zM83.1 42.542v21.415h4.681V57.17c0-1.549.591-3.15 2.44-3.15 1.85 0 2.109 1.601 2.109 3.15v6.786h4.675v-8.105c0-3.35-1.631-5.568-4.96-5.568a4.865 4.865 0 0 0-4.215 2.113l-.049-9.855H83.1z" fill-rule="nonzero"/>
            <path d="M60.604 54.358c.805-.041 1.59.26 2.163.83.572.57.88 1.355.845 2.163 0 1.677-1.106 2.967-3.008 2.967s-3.008-1.29-3.008-2.967a2.881 2.881 0 0 1 .845-2.163 2.859 2.859 0 0 1 2.163-.83zm-2.855-3.635h-4.675V70.56h4.675v-7.86c1.005 1.16 2.571 1.7 4.088 1.7 3.916 0 6.604-3.196 6.604-7.018 0-3.822-2.724-7.09-6.656-7.09-1.54 0-3.135.615-3.983 1.932l-.053-1.493v-.007z"/>
            <path d="M80.45 51.054a6.42 6.42 0 0 0-3.083-.77c-4.137 0-7.376 2.948-7.376 7.205 0 3.999 3.262 6.913 7.177 6.913a7.334 7.334 0 0 0 3.289-.746v-3.983a3.581 3.581 0 0 1-2.34.9c-1.927 0-3.288-1.342-3.288-3.248a3.183 3.183 0 0 1 .925-2.294 3.159 3.159 0 0 1 2.285-.932 4.121 4.121 0 0 1 2.418.93v-3.975h-.007zM43.182 45.588a13.188 13.188 0 0 0-6.065-1.601c-3.88 0-6.679 2.58-6.679 6.526 0 3.767 2.082 4.585 5.24 5.496 1.08.308 3.06.799 3.06 2.22 0 1.366-1.26 1.965-2.443 1.965-1.72 0-3.21-.9-4.47-2.014l-2.16 4.077a11.914 11.914 0 0 0 6.812 2.217c1.958 0 3.984-.537 5.498-1.83 1.514-1.294 2.006-3.305 2.006-5.24 0-3.147-2.081-4.513-4.78-5.312l-1.285-.39c-.878-.281-2.238-.723-2.238-1.857 0-1.084 1.233-1.637 2.16-1.637a5.28 5.28 0 0 1 3.34 1.29l2.004-3.93v.02zM50.728 50.73H46.05v13.237h4.678V50.73zM57.606 33.966a3.503 3.503 0 0 1-2.5-.947 3.932 3.932 0 0 1-1.03-1.677c-.457 1.716-1.56 2.62-4.01 2.62h-4.894c-.802 3.465-4.085 5.676-7.79 5.41h-.268a7.595 7.595 0 0 1-2.066-.537 2.696 2.696 0 0 1-.675-.416l.026 3.819H29.73v-10.83c-.104-1.55.914-3.21 1.537-3.864 1.494-1.556 3.677-2.342 6.104-2.342 3.446 0 6.525 1.68 7.596 4.726h3.419c1.305-.112 1.742-.983 1.872-1.903v-7.532h4.728v7.532c.137.982.617 1.873 2.091 1.873l33.037.03v-.655c0-2.352-2.176-2.142-3.439-2.142H62.83v-4.11l4.894-4.798h6.427l-5.115 4.736h19.37c3.262 0 5.5 1.428 5.5 5.004v1.827h4.072c2.352 0 2.13-2.453 2.13-3.72v-5.567h4.705v5.894c0 1.274-.209 3.504 2.118 3.504h5.755c2.33 0 2.12-2.23 2.12-3.504v-5.894h4.734v6.33s-.28 3.55 2.033 3.507c2.056-.032 2.056-2.214 2.056-3.664v-6.223h4.632v6.223c0 1.552.075 3.566 2.206 3.566 1.957 0 1.902-2.217 1.902-3.566v-6.223h4.613v8.48c0 2.717-1.161 5-4.437 5a4.968 4.968 0 0 1-4.414-2.496c-.936 1.733-2.545 2.496-4.424 2.496a4.832 4.832 0 0 1-4.12-2.063l-.46-.757c-.653 2.188-1.929 2.853-4.102 2.853h-6.763c-1.674 0-3.034-.603-3.733-2.096l-.359-.81c-.499 1.858-1.81 2.906-4.114 2.906h-42.45zm-20.228-4.677a2.878 2.878 0 0 0-2.173.836 2.9 2.9 0 0 0-.852 2.174c0 1.68 1.113 2.977 3.025 2.977s3.021-1.31 3.021-2.977a2.898 2.898 0 0 0-.849-2.174 2.875 2.875 0 0 0-2.172-.836zM83.132 72.737c0-.433 0-.75-.023-1.13a4.59 4.59 0 0 1 .953-.125h2.049c-.008.251-.097.493-.254.688a2.89 2.89 0 0 1-.793.053h-.878v1.601h1.84c-.075.626-.26.743-.554.743h-1.286v1.772c.26.05.523.072.786.066.343 0 .963 0 1.364-.036l.02.016a.983.983 0 0 1-.447.714 7.94 7.94 0 0 1-1.149.049 9.31 9.31 0 0 1-1.5-.092l-.128-.17v-4.15zM87.168 71.636c.325-.09.659-.15.995-.176.101 0 .176.078.297.275.48.786.74 1.202 1.034 1.68.327-.482.777-1.209 1.149-1.788.094-.135.143-.167.218-.167.262.02.518.082.76.183v.033c-.277.416-.959 1.434-1.67 2.44 1.047 1.693 1.592 2.547 1.798 2.881v.027c-.324.108-.664.159-1.005.15-.101 0-.186-.036-.277-.186-.327-.547-.702-1.163-1.165-1.965-.414.704-.979 1.591-1.204 1.965a.27.27 0 0 1-.238.153 3.648 3.648 0 0 1-.816-.101v-.046c.375-.566 1.171-1.745 1.804-2.702-.483-.786-1.367-2.19-1.68-2.642v-.014zM96.551 76.198c-.01.261-.108.511-.28.708-.372.214-.796.32-1.224.304-1.921 0-2.962-1.162-2.962-2.865 0-1.847 1.324-2.987 2.998-2.987a2.411 2.411 0 0 1 1.553.452c.016.298-.18.603-.45.56a2.673 2.673 0 0 0-1.113-.242c-1.02 0-1.856.704-1.856 2.132 0 1.218.734 2.145 2.078 2.145a3.941 3.941 0 0 0 1.23-.22l.026.013zM97.592 72.737c0-.433 0-.75-.026-1.13.312-.075.632-.116.953-.125h2.052c-.01.25-.098.49-.251.688a2.945 2.945 0 0 1-.8.053h-.874v1.601h1.837c-.075.626-.261.743-.555.743h-1.282v1.772c.258.05.52.072.783.066.346 0 .979 0 1.367-.036l.016.016a.96.96 0 0 1-.447.714c-.38.044-.765.06-1.148.049a9.29 9.29 0 0 1-1.498-.092l-.127-.17v-4.15zM101.647 72.681c0-.6 0-.963-.022-1.153.3-.041.603-.064.907-.068.146 0 .17.078.17.524v4.355c.25.051.504.073.76.066.424.006.849-.01 1.272-.046v.016a.963.963 0 0 1-.43.724 6.394 6.394 0 0 1-1.064.049 9.427 9.427 0 0 1-1.475-.092l-.127-.17.01-4.205zM105.546 72.681c0-.6 0-.963-.026-1.153a7.59 7.59 0 0 1 .91-.068c.147 0 .17.078.17.524v4.355c.25.052.505.074.76.066.425.006.85-.01 1.273-.046v.016a.983.983 0 0 1-.428.724 6.459 6.459 0 0 1-1.063.049 9.394 9.394 0 0 1-1.475-.092l-.127-.17.006-4.205zM109.439 72.737c0-.433 0-.75-.027-1.13.313-.075.632-.116.953-.125h2.049c-.009.25-.097.492-.251.688-.26.054-.528.072-.793.053h-.878v1.601h1.837c-.072.626-.26.743-.554.743h-1.283v1.772c.258.05.52.072.783.066.35 0 .963 0 1.367-.036l.017.016a.95.95 0 0 1-.447.714 7.94 7.94 0 0 1-1.149.049c-.5.01-1.001-.02-1.497-.092l-.127-.17v-4.15zM113.817 71.577v-.049c.16-.026.884-.068 1.037-.068.082 0 .147.062.235.157.268.416.963 1.532 1.57 2.521.327.512.624 1.042.89 1.589-.049-.695-.039-1.038-.039-1.48v-2.493c0-.206.059-.242.176-.262a7.82 7.82 0 0 1 .682-.032c-.016.383-.026.903-.026 1.637v3.93c-.26.08-.528.129-.8.144a.222.222 0 0 1-.211-.128 65.934 65.934 0 0 1-1.534-2.43c-.447-.75-.691-1.247-1.037-1.935.049.9.042 1.365.042 1.82v2.339c0 .19-.052.216-.186.242a3.9 3.9 0 0 1-.675.04c.016-.36.03-.878.03-1.638v-3.684l-.154-.22zM123.83 76.198c-.012.26-.11.51-.278.708-.372.214-.797.32-1.226.304-1.922 0-2.96-1.162-2.96-2.865 0-1.847 1.325-2.987 2.996-2.987a2.418 2.418 0 0 1 1.553.452c.02.298-.18.603-.447.56a2.712 2.712 0 0 0-1.113-.242c-1.021 0-1.86.704-1.86 2.132 0 1.218.735 2.145 2.079 2.145.419-.007.834-.081 1.23-.22l.026.013zM124.858 72.737c0-.433 0-.75-.027-1.13.313-.074.632-.116.953-.125h2.049c-.008.251-.097.493-.254.688-.26.054-.526.072-.79.053h-.88v1.601h1.842c-.081.626-.264.743-.557.743h-1.286v1.772c.26.05.523.072.786.066.346 0 .963 0 1.37-.036v.016a.983.983 0 0 1-.446.714 7.95 7.95 0 0 1-1.146.049 9.361 9.361 0 0 1-1.504-.092l-.124-.17.014-4.15zM136.958 75.78a1.597 1.597 0 0 1-.652 1.217 3.278 3.278 0 0 1-1.152.236c-1.804 0-2.796-1.048-2.796-2.973 0-1.582.979-3.105 2.65-3.105 1.569 0 2.176 1.208 2.189 2.253.004.145-.01.29-.04.432-.035.197-.528.38-1.037.508-.758.084-1.522.107-2.284.069-.009.448.17.88.491 1.191.323.311.76.473 1.206.446.477-.005.95-.108 1.386-.301l.04.026zm-2.078-3.698c-.46 0-.953.458-1.001 1.437.584.037 1.17.037 1.755 0 .088 0 .163-.127.163-.271 0-.655-.27-1.166-.907-1.166h-.01zM138.952 71.155c.16 0 .258.118.326.305.287.877.767 2.338 1.214 3.9.492-1.506 1.063-3.13 1.37-4.205.325-.005.647.067.94.21.26.117.199.406.026.877-.519 1.363-1.224 3.144-1.746 4.52a.474.474 0 0 1-.372.327c-.32.078-.648.122-.978.131-.402-1.284-.862-2.515-1.416-4.06-.252-.695-.434-1.219-.653-1.69.4-.194.833-.306 1.276-.328l.013.013zM147.98 75.78a1.597 1.597 0 0 1-.653 1.217 3.252 3.252 0 0 1-1.152.236c-1.804 0-2.793-1.048-2.793-2.973 0-1.582.98-3.105 2.646-3.105 1.573 0 2.177 1.208 2.193 2.253.002.145-.011.29-.04.432-.035.197-.531.38-1.037.508-.758.084-1.522.107-2.284.069-.009.448.17.88.492 1.191.322.311.759.473 1.205.446a3.51 3.51 0 0 0 1.387-.301l.035.026zm-2.076-3.698c-.456 0-.955.458-1.004 1.437.584.037 1.17.037 1.755 0 .085 0 .163-.127.163-.271 0-.655-.27-1.166-.904-1.166h-.01zM149.121 71.84c.166-.368.506-.626.904-.685.545 0 .767.55.777 1.362.362-.89.88-1.362 1.536-1.362a.934.934 0 0 1 .581.223c.064.258.038.53-.072.773-.049.271-.3.589-.483.615a1.333 1.333 0 0 0-.593-.13c-.203 0-.558.156-.757.707a1.643 1.643 0 0 0-.111.655v2.737c0 .21-.026.328-.274.367-.419.046-.839.066-1.26.062.023-.69.04-1.49.04-2.38V72.57a.725.725 0 0 0-.288-.655v-.076zM154.035 79.211c.6-.758 1.126-1.573 1.57-2.433a3.937 3.937 0 0 1-.275-.58c-.235-.628-1.305-3.641-1.778-4.69a3.458 3.458 0 0 1 1.26-.353c.224 0 .283.157.371.367.307.855.904 2.688 1.2 3.668a28.496 28.496 0 0 0 1.14-4.035c.288.018.573.067.851.147.3.076.326.246.261.56a26.234 26.234 0 0 1-1.546 4.611c-.793 1.743-1.772 3.275-2.053 3.275a1.378 1.378 0 0 1-1.001-.481v-.056zM160.651 71.155c.15 0 .239.092.287.327.271.983.532 2.07.953 3.904.58-2.007.767-2.567 1.002-3.442 0-.12-.05-.278-.072-.396a4.956 4.956 0 0 1 1.1-.233c.195 0 .231.141.31.443.218.907.616 2.344.926 3.55.42-1.376.874-3.066 1.139-4.14.346.007.691.06 1.024.157.16.076.19.246.052.695-.522 1.585-1.03 3.065-1.572 4.673-.088.265-.137.373-.382.435a4.418 4.418 0 0 1-1.015.118c-.326-1.283-.62-2.276-.978-3.723-.261.884-.653 2.047-.98 3.186-.074.262-.15.367-.345.42-.322.07-.65.109-.979.117-.326-1.06-.705-2.423-1.174-3.93a32.78 32.78 0 0 0-.617-1.83c.428-.17.877-.28 1.334-.328l-.013-.003zM169.878 71.931a2.567 2.567 0 0 1 1.723-.776c1.161 0 1.761.943 1.761 2.332v1.742c0 .655 0 1.379.043 1.824-.426.06-.856.093-1.286.098-.189 0-.25-.075-.25-.272v-3.327c0-.773-.383-1.205-.95-1.205-.388.022-.756.18-1.041.445v3.93c0 .236-.036.328-.287.367-.414.046-.83.067-1.246.062.026-.69.035-1.477.035-2.367v-4.939a14.03 14.03 0 0 0-.049-1.411c.431-.13.876-.21 1.325-.236.173 0 .222.062.222.861v2.872zM179.118 75.78a1.606 1.606 0 0 1-.653 1.217 3.298 3.298 0 0 1-1.155.236c-1.804 0-2.796-1.048-2.796-2.973 0-1.582.979-3.105 2.65-3.105 1.569 0 2.175 1.208 2.188 2.253.004.145-.009.29-.039.432-.036.197-.528.38-1.037.508-.758.084-1.522.107-2.284.069-.01.448.167.88.49 1.191.32.311.757.473 1.203.446a3.48 3.48 0 0 0 1.387-.301l.046.026zm-2.082-3.698c-.457 0-.953.458-1.002 1.437.586.037 1.173.037 1.759 0 .085 0 .16-.127.16-.271 0-.655-.274-1.166-.904-1.166h-.013zM180.256 71.84c.166-.368.506-.626.904-.685.545 0 .767.55.776 1.362.36-.89.881-1.362 1.537-1.362a.925.925 0 0 1 .58.223c.065.258.038.531-.074.773-.05.271-.297.589-.483.615a1.3 1.3 0 0 0-.594-.13c-.196 0-.554.156-.753.707a1.643 1.643 0 0 0-.111.655v2.737c0 .21-.023.328-.274.367-.42.046-.841.067-1.263.062.026-.69.04-1.49.04-2.38V72.57a.715.715 0 0 0-.285-.655v-.076zM189.062 75.78c-.02.484-.26.933-.653 1.217a3.278 3.278 0 0 1-1.151.236c-1.808 0-2.796-1.048-2.796-2.973 0-1.582.978-3.105 2.646-3.105 1.572 0 2.176 1.208 2.189 2.253a2.09 2.09 0 0 1-.036.432c-.04.197-.532.38-1.04.508-.759.084-1.523.107-2.285.069-.009.448.17.88.492 1.191.322.311.759.473 1.205.446a3.506 3.506 0 0 0 1.383-.301l.046.026zm-2.075-3.698c-.46 0-.953.458-1.005 1.437.586.037 1.173.037 1.759 0 .088 0 .16-.127.16-.271 0-.655-.271-1.166-.904-1.166h-.01z" fill-rule="nonzero"/>
        </g>
    </g>
</svg>
