<svg width="73" height="68" xmlns="http://www.w3.org/2000/svg">
    <defs>
        <filter color-interpolation-filters="auto" id="a">
            <feColorMatrix in="SourceGraphic" values="0 0 0 0 0.976471 0 0 0 0 0.729412 0 0 0 0 0.282353 0 0 0 1.000000 0"/>
        </filter>
    </defs>
    <g fill="none" fill-rule="evenodd">
        <path d="M0 0h73v68H0z"/>
        <g filter="url(#a)" transform="translate(2 2)">
            <g fill="#FFF59B" fill-rule="nonzero">
                <path d="M6.992 48h2.91v-6.445c0-3.351-2.683-6.067-5.992-6.067H1v6.445C1 45.283 3.683 48 6.992 48zM12.812 35.857h-2.91v-6.445c0-3.35 2.683-6.067 5.993-6.067h2.91v6.445c0 3.351-2.683 6.067-5.993 6.067zM31.09 23.512H34v-6.445C34 13.717 31.317 11 28.008 11h-2.91v6.445c0 3.351 2.683 6.067 5.992 6.067zM36.91 35.655H34V29.21c0-3.351 2.683-6.067 5.992-6.067h2.91v6.445c0 3.35-2.683 6.067-5.992 6.067zM55.188 48h2.91v-6.445c0-3.351-2.683-6.067-5.993-6.067h-2.91v6.445c0 3.35 2.683 6.067 5.993 6.067zM61.008 35.857h-2.91v-6.445c0-3.35 2.683-6.067 5.992-6.067H67v6.445c0 3.351-2.683 6.067-5.992 6.067z"/>
            </g>
        </g>
        <g fill-rule="nonzero">
            <path d="M33.577 50.16H36.5v-6.376c0-3.315-2.695-6.001-6.02-6.001h-2.923v6.375c0 3.314 2.695 6.001 6.02 6.001z" fill="#F9BA48"/>
            <path d="M63.632 51.636c4.063 0 7.368-3.295 7.368-7.345v-6.375c0-.742-.603-1.344-1.348-1.344H66.73c-1.772 0-3.4.627-4.672 1.67v-8.559c1.422-1.05 4.749-3.882 4.749-7.414 0-4.396-5.155-7.71-5.374-7.849a1.351 1.351 0 0 0-1.445 0c-.22.14-5.374 3.453-5.374 7.849 0 .808.174 1.58.46 2.302a7.421 7.421 0 0 0-.384-.01h-2.923c-.744 0-1.348.602-1.348 1.344v6.375c0 4.05 3.305 7.345 7.368 7.345h1.575v15.8H37.848v-3.922h1.575c4.063 0 7.368-3.295 7.368-7.345v-6.376c0-.742-.604-1.343-1.348-1.343H42.52c-1.772 0-3.4.627-4.672 1.67V27.414h1.575c4.063 0 7.368-3.295 7.368-7.344v-6.376c0-.742-.604-1.344-1.348-1.344H42.52c-.129 0-.257.004-.384.01.286-.722.46-1.494.46-2.302 0-4.396-5.154-7.71-5.374-7.849a1.351 1.351 0 0 0-1.444 0c-.22.14-5.374 3.453-5.374 7.85 0 3.53 3.326 6.364 4.748 7.414v8.558a7.348 7.348 0 0 0-4.672-1.67h-2.923c-.744 0-1.348.602-1.348 1.344v6.375c0 4.05 3.305 7.345 7.368 7.345h1.575v16H13.64v-3.79h1.575c4.063 0 7.368-3.294 7.368-7.344v-6.375c0-.742-.604-1.344-1.348-1.344h-2.923c-1.772 0-3.4.627-4.673 1.67v-8.558c1.423-1.05 4.75-3.883 4.75-7.415 0-4.396-5.155-7.71-5.375-7.849a1.35 1.35 0 0 0-1.445 0c-.219.14-5.374 3.453-5.374 7.85 0 .807.175 1.58.46 2.301a7.421 7.421 0 0 0-.383-.01H3.348c-.745 0-1.348.602-1.348 1.344v6.375c0 4.05 3.305 7.345 7.368 7.345h1.575v15.8H6.796C4.152 55.425 2 57.57 2 60.205v4.452C2 65.399 2.603 66 3.348 66h66.304c.745 0 1.348-.601 1.348-1.343v-4.451c0-2.636-2.152-4.781-4.796-4.781h-4.147v-3.79h1.575zM42.52 39.126h1.576v5.032c0 2.568-2.096 4.658-4.673 4.658h-1.575v-5.032c0-2.569 2.096-4.658 4.672-4.658zm1.576-24.089v5.033c0 2.568-2.096 4.657-4.673 4.657h-1.575v-5.032c0-2.568 2.096-4.657 4.672-4.657h1.576zm-10.997-4.979c0-2.008 2.048-4.021 3.401-5.067 1.354 1.047 3.401 3.06 3.401 5.067 0 2.01-2.05 4.024-3.403 5.069-1.353-1.041-3.399-3.049-3.399-5.069zm.478 26.68c-2.577 0-4.673-2.09-4.673-4.658v-5.032h1.576c2.576 0 4.672 2.09 4.672 4.658v5.032h-1.575zM18.31 39.259h1.576v5.032c0 2.568-2.096 4.658-4.673 4.658H13.64v-5.032c0-2.568 2.096-4.658 4.672-4.658zm-6.02-22.057c1.353 1.046 3.4 3.06 3.4 5.067 0 2.008-2.047 4.022-3.4 5.067-1.354-1.046-3.401-3.06-3.401-5.067 0-2.008 2.048-4.021 3.4-5.067zM9.368 36.938c-2.577 0-4.673-2.09-4.673-4.658v-5.032h1.576c2.576 0 4.672 2.09 4.672 4.658v5.032H9.368zm58.937 23.268v3.107H4.695v-3.107a2.1 2.1 0 0 1 2.101-2.094h59.408a2.1 2.1 0 0 1 2.1 2.094zm-1.576-20.947h1.576v5.032c0 2.568-2.096 4.658-4.673 4.658h-1.575v-5.032c0-2.568 2.096-4.658 4.672-4.658zm-6.02-22.057c1.354 1.046 3.401 3.06 3.401 5.067 0 2.01-2.05 4.024-3.403 5.068-1.353-1.04-3.399-3.048-3.399-5.068 0-2.008 2.048-4.021 3.401-5.067zm-2.923 19.736c-2.576 0-4.672-2.09-4.672-4.658v-5.032h1.575c2.576 0 4.673 2.09 4.673 4.658v5.032h-1.576z" fill="#4E4E4E"/>
        </g>
    </g>
</svg>
