<svg width="91" height="52" xmlns="http://www.w3.org/2000/svg">
    <defs>
        <filter color-interpolation-filters="auto" id="a">
            <feColorMatrix in="SourceGraphic" values="0 0 0 0 0.976471 0 0 0 0 0.729412 0 0 0 0 0.282353 0 0 0 1.000000 0"/>
        </filter>
    </defs>
    <g fill="none" fill-rule="evenodd">
        <path d="M0 0h91v52H0z"/>
        <g filter="url(#a)" transform="translate(2 2)">
            <g fill="#FFBEBC">
                <path d="M62.172 27.683H1v7.34h76.809L84.6 23.778H65.858zM18.842 0H44.33v13.841H18.842z"/>
            </g>
        </g>
        <g fill="#4E4E4E" fill-rule="nonzero">
            <path d="M87.3 46.54c-2.034 0-3.042-.647-4.32-1.465-.926-.593-1.93-1.237-3.311-1.629l9.08-15.032a1.757 1.757 0 0 0 .035-1.75 1.694 1.694 0 0 0-1.483-.887H68.557c-.462 0-.905.192-1.225.532l-3.185 3.374h-2.674V19.07c1.483-.875.89-3.219-.85-3.229h-20.39v-5.19c-.084-2.293-3.316-2.292-3.399 0v5.19h-5.098v-5.19c-.083-2.293-3.315-2.292-3.398 0v5.19H7.948c-1.742.011-2.333 2.355-.85 3.23v10.612H3.699c-.938 0-1.699.775-1.699 1.73v7.34c0 .35.103.69.296.977l4.187 6.238c-.75.35-1.59.572-2.784.572-.938 0-1.699.774-1.699 1.73 0 .955.76 1.73 1.7 1.73 3.014 0 4.67-1.06 6.13-1.996 1.276-.818 2.285-1.464 4.32-1.464 2.034 0 3.043.646 4.32 1.464 3.597 2.663 8.67 2.657 12.26 0 1.277-.818 2.285-1.464 4.32-1.464s3.043.646 4.32 1.464c3.597 2.663 8.671 2.657 12.26 0 1.277-.818 2.285-1.464 4.32-1.464s3.043.646 4.32 1.464c3.597 2.663 8.672 2.657 12.26 0 1.277-.818 2.286-1.464 4.32-1.464 2.035 0 3.044.646 4.32 1.464C82.63 48.94 84.287 50 87.3 50c.939 0 1.7-.775 1.7-1.73 0-.956-.761-1.73-1.7-1.73zM58.075 29.683h-5.097v-5.19c-.084-2.294-3.316-2.292-3.399 0v5.19h-5.097v-5.19c-.084-2.294-3.316-2.292-3.399 0v5.19h-5.098V19.302h22.09v10.38zM10.496 19.302h22.09v10.38h-5.098v-5.19c-.083-2.293-3.315-2.291-3.398 0v5.19h-5.098v-5.19c-.083-2.293-3.315-2.291-3.398 0v5.19h-5.098v-10.38zM70.72 45.075c-1.277.818-2.285 1.465-4.32 1.465-2.034 0-3.043-.647-4.32-1.465-3.597-2.662-8.671-2.657-12.26 0-1.277.818-2.285 1.465-4.32 1.465s-3.043-.647-4.32-1.465c-3.597-2.662-8.672-2.657-12.26 0-1.277.818-2.286 1.465-4.32 1.465-2.035 0-3.044-.647-4.32-1.465-2.798-2.117-7.392-2.791-10.85-.85L5.397 38.22v-5.076h59.473c.462 0 .905-.191 1.225-.531l3.185-3.374h14.98l-8.384 13.88c-2.414.2-3.862 1.128-5.157 1.957zM20.691 5.46H47.88c2.252-.085 2.25-3.376 0-3.46H20.69c-2.252.085-2.25 3.376 0 3.46z"/>
        </g>
    </g>
</svg>
