<svg width="69" height="69" xmlns="http://www.w3.org/2000/svg">
    <g fill="none" fill-rule="evenodd">
        <path d="M0 0h69v69H0z"/>
        <path d="m35.815 20.428 3.284-3.178 4.397 1.132 3.348-3.454C43.914 11.193 39.346 9 34.5 9 25.94 9 19 15.716 19 24c0 5.451 3.005 10.223 7.499 12.85a15.816 15.816 0 0 0 8 2.15C43.06 39 50 32.284 50 24c0-1.354-.19-2.702-.563-4.008l-2.207 2.004 1.17 4.254-3.285 3.18-3.175-5.93-6.125-3.072z" fill="#F9BA48"/>
        <path d="M63 6.267c.016-1.148-.41-2.193-1.233-3.022-.825-.83-1.866-1.26-3.005-1.245-1.342.02-2.75.68-3.764 1.764L52.25 6.697 44.91 3.633a1.255 1.255 0 0 0-1.374.275l-.168.17A21.873 21.873 0 0 0 33.999 2C21.734 2 11.756 12.047 11.756 24.396c0 1.02.096 2.056.277 3.105-2.953 4.232-5.084 8.068-6.166 11.1-1.249 3.5-1.148 6.013.3 7.47.783.789 1.863 1.183 3.234 1.183 2.277 0 5.356-1.085 9.208-3.25.312-.176.628-.358.947-.546 2.17 3.113 4.57 6.12 6.901 8.89-4.397 1.383-7.055 3.894-7.055 6.78 0 2.274 1.637 4.336 4.61 5.808C26.703 66.267 30.249 67 34 67c3.752 0 7.298-.733 9.987-2.064 2.973-1.472 4.61-3.534 4.61-5.807 0-2.887-2.657-5.398-7.054-6.78 6.921-8.23 14.471-18.537 14.696-27.543a1.257 1.257 0 0 0 1.734-.047l3.136-3.158c.36-.363.468-.91.273-1.384l-3.043-7.392 2.913-2.765C62.326 9.04 62.98 7.622 63 6.267zm-45.62 35.52c-5.638 3.168-8.604 3.321-9.43 2.49-1.194-1.203-.094-5.887 4.903-13.483 1.123 3.499 3.02 7.076 5.284 10.558-.255.15-.507.294-.757.434zm28.695 17.342c0 2.522-4.96 5.332-12.076 5.332-7.116 0-12.075-2.81-12.075-5.332 0-1.828 2.582-3.705 6.344-4.655 1.008 1.172 1.987 2.29 2.91 3.345.659.752 1.286 1.468 1.87 2.144a1.257 1.257 0 0 0 1.902 0c.585-.676 1.212-1.392 1.87-2.144.923-1.055 1.902-2.173 2.911-3.345 3.761.95 6.344 2.827 6.344 4.655zm-11.146-2.99-.93 1.063c-.301-.345-.611-.7-.929-1.062-3.469-3.963-7.76-8.866-11.366-14.009 4.885-3.147 10.454-7.583 16.016-12.777.51-.477.54-1.28.066-1.794a1.255 1.255 0 0 0-1.782-.067c-5.482 5.12-10.952 9.477-15.72 12.54-3.468-5.308-6.006-10.77-6.006-15.637 0-10.949 8.847-19.857 19.721-19.857 2.596 0 5.096.493 7.453 1.466L40.4 7.065a1.275 1.275 0 0 0 .1 1.886l5.478 4.453-3.6 3.864-3.564-.955a1.255 1.255 0 0 0-1.216.33l-3.206 3.228a1.275 1.275 0 0 0 .311 2.025l5.625 2.935 2.915 5.663a1.261 1.261 0 0 0 1.12.685c.331 0 .653-.132.891-.372l3.207-3.228c.318-.32.442-.787.327-1.224l-.949-3.588 3.856-3.642 1.802 2.263c.15.99.225 2.001.225 3.008 0 10.275-11.309 23.194-18.792 31.744zM60.478 6.23c-.01.663-.385 1.441-.956 1.983l-3.547 3.366c-.381.362-.5.923-.3 1.41l3.054 7.418-1.545 1.555-4.374-5.495a1.259 1.259 0 0 0-1.847-.132l-5.4 5.1c-.338.32-.475.802-.356 1.253l.956 3.614-1.475 1.485-2.306-4.481a1.265 1.265 0 0 0-.54-.543l-4.45-2.322 1.475-1.485 3.59.962c.448.12.926-.017 1.243-.358l5.046-5.415a1.274 1.274 0 0 0-.128-1.856l-5.444-4.426 1.548-1.559 7.368 3.075a1.255 1.255 0 0 0 1.4-.302l3.343-3.57c.54-.578 1.312-.957 1.966-.967.457-.006.843.158 1.184.501.34.342.501.73.495 1.19z" fill="#4E4E4E" fill-rule="nonzero"/>
    </g>
</svg>
